#define diskette_width 9
#define diskette_height 9
static unsigned char diskette_bits[] = {
   0xfe, 0x01, 0x02, 0x01, 0x02, 0x01, 0x32, 0x01, 0x32, 0x01, 0x02, 0x01,
   0x1a, 0x01, 0x1a, 0x01, 0xfc, 0x01 };
