#define bluetooth_width 8
#define bluetooth_height 8
static unsigned char bluetooth_bits[] = {
   0x18, 0x6a, 0xce, 0x7c, 0x7c, 0xce, 0x6a, 0x18 };
