#define dropbox_width 8
#define dropbox_height 8
static unsigned char dropbox_bits[] = {
   0xff, 0xdb, 0x81, 0xdb, 0xdb, 0x81, 0xdb, 0xff };
