#define mute_width 8
#define mute_height 8
static unsigned char mute_bits[] = {
   0xd0, 0x78, 0x3e, 0x1e, 0x1e, 0x1e, 0x1b, 0x11 };
