#define snowy_width 8
#define snowy_height 8
static unsigned char snowy_bits[] = {
   0x22, 0x55, 0x22, 0x88, 0x22, 0x55, 0x22, 0x88 };
