#define vpn_icon_width 8
#define vpn_icon_height 8
static unsigned char vpn_icon_bits[] = {
   0x18, 0x24, 0x24, 0x7e, 0x5a, 0x5a, 0x5a, 0x66 };
