#define tall_thin_updated_big_outline_width 12
#define tall_thin_updated_big_outline_height 12
static unsigned char tall_thin_updated_big_outline_bits[] = {
   0x7f, 0x0f, 0x41, 0x09, 0x41, 0x0f, 0x41, 0x00, 0x41, 0x0f, 0x41, 0x09,
   0x41, 0x09, 0x41, 0x0f, 0x41, 0x00, 0x41, 0x0f, 0x41, 0x09, 0x7f, 0x0f };
