solid Untitled-551f0e99
facet normal 0.0 -1.0 0.0
  outer loop
    vertex 15.335037535829896 37.62783800016914 1.9999999999999998
    vertex 10.335037535829905 37.62783800016914 0.0
    vertex 15.335037535829896 37.62783800016914 0.0
  endloop
endfacet
facet normal 0.0 -1.0 0.0
  outer loop
    vertex 10.335037535829905 37.62783800016914 0.0
    vertex 15.335037535829896 37.62783800016914 1.9999999999999998
    vertex 10.335037535829905 37.62783800016914 1.9999999999999998
  endloop
endfacet
facet normal 0.0 1.0 0.0
  outer loop
    vertex -6.664962464170109 -30.27216199983085 7.999999999999999
    vertex 5.735037535829913 -30.27216199983085 1.9999999999999998
    vertex -6.664962464170109 -30.27216199983085 1.9999999999999998
  endloop
endfacet
facet normal 0.0 1.0 0.0
  outer loop
    vertex 5.735037535829913 -30.27216199983085 1.9999999999999998
    vertex -6.664962464170109 -30.27216199983085 7.999999999999999
    vertex 5.735037535829913 -30.27216199983085 7.999999999999999
  endloop
endfacet
facet normal -1.0 0.0 0.0
  outer loop
    vertex -0.2649624641700755 52.22783800016914 1.9999999999999998
    vertex -0.2649624641700755 47.22783800016915 0.0
    vertex -0.2649624641700755 47.22783800016915 1.9999999999999998
  endloop
endfacet
facet normal -1.0 0.0 0.0
  outer loop
    vertex -0.2649624641700755 47.22783800016915 0.0
    vertex -0.2649624641700755 52.22783800016914 1.9999999999999998
    vertex -0.2649624641700755 52.22783800016914 0.0
  endloop
endfacet
facet normal 1.0 0.0 0.0
  outer loop
    vertex 10.335037535829905 37.62783800016914 0.0
    vertex 10.335037535829905 19.10283800016915 1.9999999999999998
    vertex 10.335037535829905 19.10283800016915 0.0
  endloop
endfacet
facet normal 1.0 0.0 0.0
  outer loop
    vertex 10.335037535829905 19.10283800016915 1.9999999999999998
    vertex 10.335037535829905 37.62783800016914 0.0
    vertex 10.335037535829905 37.62783800016914 1.9999999999999998
  endloop
endfacet
facet normal 1.0 0.0 0.0
  outer loop
    vertex 10.335037535829905 52.22783800016914 0.0
    vertex 10.335037535829905 47.22783800016915 1.9999999999999998
    vertex 10.335037535829905 47.22783800016915 0.0
  endloop
endfacet
facet normal 1.0 0.0 0.0
  outer loop
    vertex 10.335037535829905 47.22783800016915 1.9999999999999998
    vertex 10.335037535829905 52.22783800016914 0.0
    vertex 10.335037535829905 52.22783800016914 1.9999999999999998
  endloop
endfacet
facet normal 1.0 0.0 0.0
  outer loop
    vertex 10.335037535829905 1.377838000169143 0.0
    vertex 10.335037535829905 -17.14716199983085 1.9999999999999998
    vertex 10.335037535829905 -17.14716199983085 0.0
  endloop
endfacet
facet normal 1.0 0.0 0.0
  outer loop
    vertex 10.335037535829905 -17.14716199983085 1.9999999999999998
    vertex 10.335037535829905 1.377838000169143 0.0
    vertex 10.335037535829905 1.377838000169143 1.9999999999999998
  endloop
endfacet
facet normal -0.0 -1.0 -0.0
  outer loop
    vertex -11.2649624641701 -16.74716199983085 1.9999999999999998
    vertex -16.26496246417009 -16.74716199983085 0.0
    vertex -11.2649624641701 -16.74716199983085 0.0
  endloop
endfacet
facet normal -0.0 -1.0 -0.0
  outer loop
    vertex -16.26496246417009 -16.74716199983085 0.0
    vertex -11.2649624641701 -16.74716199983085 1.9999999999999998
    vertex -16.26496246417009 -16.74716199983085 1.9999999999999998
  endloop
endfacet
facet normal 1.0 0.0 0.0
  outer loop
    vertex 15.335037535829896 19.10283800016915 0.0
    vertex 15.335037535829896 1.377838000169143 1.9999999999999998
    vertex 15.335037535829896 1.377838000169143 0.0
  endloop
endfacet
facet normal 1.0 0.0 0.0
  outer loop
    vertex 15.335037535829896 1.377838000169143 1.9999999999999998
    vertex 15.335037535829896 19.10283800016915 0.0
    vertex 15.335037535829896 19.10283800016915 1.9999999999999998
  endloop
endfacet
facet normal 0.0 0.0 1.0
  outer loop
    vertex -11.2649624641701 19.50283800016915 1.9999999999999998
    vertex -16.26496246417009 37.22783800016914 1.9999999999999998
    vertex -16.26496246417009 19.50283800016915 1.9999999999999998
  endloop
endfacet
facet normal 0.0 0.0 1.0
  outer loop
    vertex -16.26496246417009 37.22783800016914 1.9999999999999998
    vertex -11.2649624641701 19.50283800016915 1.9999999999999998
    vertex -11.2649624641701 37.22783800016914 1.9999999999999998
  endloop
endfacet
facet normal -0.0 -1.0 -0.0
  outer loop
    vertex 15.335037535829896 1.377838000169143 1.9999999999999998
    vertex 10.335037535829905 1.377838000169143 0.0
    vertex 15.335037535829896 1.377838000169143 0.0
  endloop
endfacet
facet normal -0.0 -1.0 -0.0
  outer loop
    vertex 10.335037535829905 1.377838000169143 0.0
    vertex 15.335037535829896 1.377838000169143 1.9999999999999998
    vertex 10.335037535829905 1.377838000169143 1.9999999999999998
  endloop
endfacet
facet normal -1.0 0.0 0.0
  outer loop
    vertex 10.735037535829905 -34.872161999830844 1.9999999999999998
    vertex 10.735037535829905 -39.87216199983085 0.0
    vertex 10.735037535829905 -39.87216199983085 1.9999999999999998
  endloop
endfacet
facet normal -1.0 0.0 0.0
  outer loop
    vertex 10.735037535829905 -39.87216199983085 0.0
    vertex 10.735037535829905 -34.872161999830844 1.9999999999999998
    vertex 10.735037535829905 -34.872161999830844 0.0
  endloop
endfacet
facet normal -1.0 -3.9773857299688266e-17 -0.0
  outer loop
    vertex -16.26496246417009 0.9778380001691439 1.9999999999999998
    vertex -16.26496246417009 -16.74716199983085 0.0
    vertex -16.26496246417009 -16.74716199983085 1.9999999999999998
  endloop
endfacet
facet normal -1.0 -3.9773857299688266e-17 -0.0
  outer loop
    vertex -16.26496246417009 -16.74716199983085 0.0
    vertex -16.26496246417009 0.9778380001691439 1.9999999999999998
    vertex -16.26496246417009 0.9778380001691439 0.0
  endloop
endfacet
facet normal 0.0 1.0 0.0
  outer loop
    vertex -0.2649624641700755 52.22783800016914 1.9999999999999998
    vertex 10.335037535829905 52.22783800016914 0.0
    vertex -0.2649624641700755 52.22783800016914 0.0
  endloop
endfacet
facet normal 0.0 1.0 0.0
  outer loop
    vertex 10.335037535829905 52.22783800016914 0.0
    vertex -0.2649624641700755 52.22783800016914 1.9999999999999998
    vertex 10.335037535829905 52.22783800016914 1.9999999999999998
  endloop
endfacet
facet normal 0.0 0.0 1.0
  outer loop
    vertex -11.2649624641701 37.22783800016914 1.9999999999999998
    vertex -3.4649624641701147 40.42783800016915 1.9999999999999998
    vertex -11.2649624641701 47.22783800016915 1.9999999999999998
  endloop
endfacet
facet normal 0.0 0.0 1.0
  outer loop
    vertex -3.4649624641701147 40.42783800016915 1.9999999999999998
    vertex -11.2649624641701 37.22783800016914 1.9999999999999998
    vertex 10.335037535829905 37.62783800016914 1.9999999999999998
  endloop
endfacet
facet normal 0.0 0.0 1.0
  outer loop
    vertex -11.2649624641701 47.22783800016915 1.9999999999999998
    vertex -3.4649624641701147 40.42783800016915 1.9999999999999998
    vertex -4.96496246417009 41.927838000169146 1.9999999999999998
  endloop
endfacet
facet normal 0.0 0.0 1.0
  outer loop
    vertex -3.4649624641701147 40.42783800016915 1.9999999999999998
    vertex 10.335037535829905 37.62783800016914 1.9999999999999998
    vertex -2.4649624641700716 40.42783800016915 1.9999999999999998
  endloop
endfacet
facet normal 0.0 0.0 1.0
  outer loop
    vertex -2.4649624641700716 40.42783800016915 1.9999999999999998
    vertex 10.335037535829905 37.62783800016914 1.9999999999999998
    vertex -2.4649624641700716 41.927838000169146 1.9999999999999998
  endloop
endfacet
facet normal 0.0 0.0 1.0
  outer loop
    vertex -2.4649624641700716 41.927838000169146 1.9999999999999998
    vertex 10.335037535829905 37.62783800016914 1.9999999999999998
    vertex -0.9649624641700968 41.927838000169146 1.9999999999999998
  endloop
endfacet
facet normal 0.0 0.0 1.0
  outer loop
    vertex -0.9649624641700968 41.927838000169146 1.9999999999999998
    vertex 10.335037535829905 37.62783800016914 1.9999999999999998
    vertex 0.5350375358298779 41.927838000169146 1.9999999999999998
  endloop
endfacet
facet normal 0.0 0.0 1.0
  outer loop
    vertex -0.9649624641700968 41.927838000169146 1.9999999999999998
    vertex 0.5350375358298779 41.927838000169146 1.9999999999999998
    vertex -0.9649624641700968 42.927838000169146 1.9999999999999998
  endloop
endfacet
facet normal 0.0 0.0 1.0
  outer loop
    vertex -0.9649624641700968 42.927838000169146 1.9999999999999998
    vertex 0.5350375358298779 41.927838000169146 1.9999999999999998
    vertex -0.2649624641700755 47.22783800016915 1.9999999999999998
  endloop
endfacet
facet normal 0.0 0.0 1.0
  outer loop
    vertex -0.2649624641700755 47.22783800016915 1.9999999999999998
    vertex 0.5350375358298779 41.927838000169146 1.9999999999999998
    vertex -0.2649624641700755 52.22783800016914 1.9999999999999998
  endloop
endfacet
facet normal 0.0 0.0 1.0
  outer loop
    vertex 0.5350375358298779 41.927838000169146 1.9999999999999998
    vertex 10.335037535829905 37.62783800016914 1.9999999999999998
    vertex 3.5350375358299173 41.927838000169146 1.9999999999999998
  endloop
endfacet
facet normal 0.0 0.0 1.0
  outer loop
    vertex 3.5350375358299173 41.927838000169146 1.9999999999999998
    vertex 10.335037535829905 37.62783800016914 1.9999999999999998
    vertex 3.5350375358299173 42.927838000169146 1.9999999999999998
  endloop
endfacet
facet normal 0.0 0.0 1.0
  outer loop
    vertex 15.335037535829896 37.62783800016914 1.9999999999999998
    vertex 10.335037535829905 47.22783800016915 1.9999999999999998
    vertex 10.335037535829905 37.62783800016914 1.9999999999999998
  endloop
endfacet
facet normal 0.0 0.0 1.0
  outer loop
    vertex 10.335037535829905 47.22783800016915 1.9999999999999998
    vertex 15.335037535829896 37.62783800016914 1.9999999999999998
    vertex 15.335037535829896 47.22783800016915 1.9999999999999998
  endloop
endfacet
facet normal 0.0 0.0 1.0
  outer loop
    vertex -0.2649624641700755 52.22783800016914 1.9999999999999998
    vertex 0.5350375358298779 42.927838000169146 1.9999999999999998
    vertex 10.335037535829905 52.22783800016914 1.9999999999999998
  endloop
endfacet
facet normal 0.0 0.0 1.0
  outer loop
    vertex 0.5350375358298779 42.927838000169146 1.9999999999999998
    vertex -0.2649624641700755 52.22783800016914 1.9999999999999998
    vertex 0.5350375358298779 41.927838000169146 1.9999999999999998
  endloop
endfacet
facet normal 0.0 0.0 1.0
  outer loop
    vertex 10.335037535829905 52.22783800016914 1.9999999999999998
    vertex 0.5350375358298779 42.927838000169146 1.9999999999999998
    vertex 3.5350375358299173 42.927838000169146 1.9999999999999998
  endloop
endfacet
facet normal 0.0 0.0 1.0
  outer loop
    vertex 10.335037535829905 52.22783800016914 1.9999999999999998
    vertex 3.5350375358299173 42.927838000169146 1.9999999999999998
    vertex 10.335037535829905 37.62783800016914 1.9999999999999998
  endloop
endfacet
facet normal 0.0 0.0 1.0
  outer loop
    vertex 10.335037535829905 52.22783800016914 1.9999999999999998
    vertex 10.335037535829905 37.62783800016914 1.9999999999999998
    vertex 10.335037535829905 47.22783800016915 1.9999999999999998
  endloop
endfacet
facet normal 0.0 0.0 1.0
  outer loop
    vertex -0.9649624641700968 42.927838000169146 1.9999999999999998
    vertex -2.4649624641700716 44.427838000169146 1.9999999999999998
    vertex -2.4649624641700716 42.927838000169146 1.9999999999999998
  endloop
endfacet
facet normal 0.0 0.0 1.0
  outer loop
    vertex -11.2649624641701 47.22783800016915 1.9999999999999998
    vertex -3.4649624641701147 44.427838000169146 1.9999999999999998
    vertex -0.2649624641700755 47.22783800016915 1.9999999999999998
  endloop
endfacet
facet normal 0.0 0.0 1.0
  outer loop
    vertex -3.4649624641701147 44.427838000169146 1.9999999999999998
    vertex -11.2649624641701 47.22783800016915 1.9999999999999998
    vertex -4.96496246417009 42.927838000169146 1.9999999999999998
  endloop
endfacet
facet normal 0.0 0.0 1.0
  outer loop
    vertex -4.96496246417009 42.927838000169146 1.9999999999999998
    vertex -11.2649624641701 47.22783800016915 1.9999999999999998
    vertex -4.96496246417009 41.927838000169146 1.9999999999999998
  endloop
endfacet
facet normal 0.0 0.0 1.0
  outer loop
    vertex -3.4649624641701147 44.427838000169146 1.9999999999999998
    vertex -4.96496246417009 42.927838000169146 1.9999999999999998
    vertex -3.4649624641701147 42.927838000169146 1.9999999999999998
  endloop
endfacet
facet normal 0.0 0.0 1.0
  outer loop
    vertex -0.2649624641700755 47.22783800016915 1.9999999999999998
    vertex -3.4649624641701147 44.427838000169146 1.9999999999999998
    vertex -2.4649624641700716 44.427838000169146 1.9999999999999998
  endloop
endfacet
facet normal 0.0 0.0 1.0
  outer loop
    vertex -0.2649624641700755 47.22783800016915 1.9999999999999998
    vertex -2.4649624641700716 44.427838000169146 1.9999999999999998
    vertex -0.9649624641700968 42.927838000169146 1.9999999999999998
  endloop
endfacet
facet normal 0.0 0.0 1.0
  outer loop
    vertex -3.4649624641701147 41.927838000169146 1.9999999999999998
    vertex -4.96496246417009 41.927838000169146 1.9999999999999998
    vertex -3.4649624641701147 40.42783800016915 1.9999999999999998
  endloop
endfacet
facet normal -0.0 -1.0 -0.0
  outer loop
    vertex 10.735037535829905 -34.872161999830844 1.9999999999999998
    vertex -0.6649624641700748 -34.872161999830844 0.0
    vertex 10.735037535829905 -34.872161999830844 0.0
  endloop
endfacet
facet normal -0.0 -1.0 -0.0
  outer loop
    vertex -0.6649624641700748 -34.872161999830844 0.0
    vertex 10.735037535829905 -34.872161999830844 1.9999999999999998
    vertex -0.6649624641700748 -34.872161999830844 1.9999999999999998
  endloop
endfacet
facet normal 0.0 1.0 0.0
  outer loop
    vertex -16.26496246417009 0.9778380001691439 1.9999999999999998
    vertex -11.2649624641701 0.9778380001691439 0.0
    vertex -16.26496246417009 0.9778380001691439 0.0
  endloop
endfacet
facet normal 0.0 1.0 0.0
  outer loop
    vertex -11.2649624641701 0.9778380001691439 0.0
    vertex -16.26496246417009 0.9778380001691439 1.9999999999999998
    vertex -11.2649624641701 0.9778380001691439 1.9999999999999998
  endloop
endfacet
facet normal 1.0 0.0 0.0
  outer loop
    vertex -0.6649624641700748 -34.872161999830844 0.0
    vertex -0.6649624641700748 -39.87216199983085 1.9999999999999998
    vertex -0.6649624641700748 -39.87216199983085 0.0
  endloop
endfacet
facet normal 1.0 0.0 0.0
  outer loop
    vertex -0.6649624641700748 -39.87216199983085 1.9999999999999998
    vertex -0.6649624641700748 -34.872161999830844 0.0
    vertex -0.6649624641700748 -34.872161999830844 1.9999999999999998
  endloop
endfacet
facet normal -1.0 -0.0 -0.0
  outer loop
    vertex 5.735037535829913 -25.372161999830855 7.999999999999999
    vertex 5.735037535829913 -30.27216199983085 1.9999999999999998
    vertex 5.735037535829913 -30.27216199983085 7.999999999999999
  endloop
endfacet
facet normal -1.0 -0.0 -0.0
  outer loop
    vertex 5.735037535829913 -30.27216199983085 1.9999999999999998
    vertex 5.735037535829913 -25.372161999830855 7.999999999999999
    vertex 5.735037535829913 -25.372161999830855 1.9999999999999998
  endloop
endfacet
facet normal 1.0 0.0 0.0
  outer loop
    vertex 15.335037535829896 47.22783800016915 0.0
    vertex 15.335037535829896 37.62783800016914 1.9999999999999998
    vertex 15.335037535829896 37.62783800016914 0.0
  endloop
endfacet
facet normal 1.0 0.0 0.0
  outer loop
    vertex 15.335037535829896 37.62783800016914 1.9999999999999998
    vertex 15.335037535829896 47.22783800016915 0.0
    vertex 15.335037535829896 47.22783800016915 1.9999999999999998
  endloop
endfacet
facet normal 0.0 1.0 0.0
  outer loop
    vertex 10.335037535829905 -17.14716199983085 1.9999999999999998
    vertex 15.335037535829896 -17.14716199983085 0.0
    vertex 10.335037535829905 -17.14716199983085 0.0
  endloop
endfacet
facet normal 0.0 1.0 0.0
  outer loop
    vertex 15.335037535829896 -17.14716199983085 0.0
    vertex 10.335037535829905 -17.14716199983085 1.9999999999999998
    vertex 15.335037535829896 -17.14716199983085 1.9999999999999998
  endloop
endfacet
facet normal -1.0 0.0 0.0
  outer loop
    vertex 5.735037535829913 -10.872161999830857 1.9999999999999998
    vertex 5.735037535829913 -15.772161999830848 0.9999999999999999
    vertex 5.735037535829913 -15.772161999830848 1.9999999999999998
  endloop
endfacet
facet normal -1.0 0.0 0.0
  outer loop
    vertex 5.735037535829913 -15.772161999830848 0.9999999999999999
    vertex 5.735037535829913 -10.872161999830857 1.9999999999999998
    vertex 5.735037535829913 -10.872161999830857 0.9999999999999999
  endloop
endfacet
facet normal 0.0 -1.0 0.0
  outer loop
    vertex 5.735037535829913 -10.872161999830857 7.999999999999999
    vertex -6.664962464170109 -10.872161999830857 1.9999999999999998
    vertex 5.735037535829913 -10.872161999830857 1.9999999999999998
  endloop
endfacet
facet normal 0.0 -1.0 0.0
  outer loop
    vertex -6.664962464170109 -10.872161999830857 1.9999999999999998
    vertex 5.735037535829913 -10.872161999830857 7.999999999999999
    vertex -6.664962464170109 -10.872161999830857 7.999999999999999
  endloop
endfacet
facet normal -0.8574929257125443 -1.8287159213863727e-18 0.5144957554275263
  outer loop
    vertex -7.664962464170107 3.8624800201226104 7.999999999999999
    vertex -11.2649624641701 19.50283800016915 1.9999999999999998
    vertex -11.2649624641701 0.9778380001691439 1.9999999999999998
  endloop
endfacet
facet normal -0.8574929257125443 -1.8287159213863727e-18 0.5144957554275263
  outer loop
    vertex -11.2649624641701 19.50283800016915 1.9999999999999998
    vertex -7.664962464170107 3.8624800201226104 7.999999999999999
    vertex -7.664962464170107 19.50283800016915 7.999999999999999
  endloop
endfacet
facet normal -0.0 -1.0 -0.0
  outer loop
    vertex 15.335037535829896 -39.87216199983085 1.9999999999999998
    vertex 10.735037535829905 -39.87216199983085 0.0
    vertex 15.335037535829896 -39.87216199983085 0.0
  endloop
endfacet
facet normal -0.0 -1.0 -0.0
  outer loop
    vertex 10.735037535829905 -39.87216199983085 0.0
    vertex 15.335037535829896 -39.87216199983085 1.9999999999999998
    vertex 10.735037535829905 -39.87216199983085 1.9999999999999998
  endloop
endfacet
facet normal 1.0 0.0 0.0
  outer loop
    vertex -6.664962464170109 32.62783800016914 0.9999999999999999
    vertex -6.664962464170109 27.72783800016914 1.9999999999999998
    vertex -6.664962464170109 27.72783800016914 0.9999999999999999
  endloop
endfacet
facet normal 1.0 0.0 0.0
  outer loop
    vertex -6.664962464170109 27.72783800016914 1.9999999999999998
    vertex -6.664962464170109 32.62783800016914 0.9999999999999999
    vertex -6.664962464170109 32.62783800016914 1.9999999999999998
  endloop
endfacet
facet normal 0.0 1.0 0.0
  outer loop
    vertex -11.2649624641701 47.22783800016915 1.9999999999999998
    vertex -0.2649624641700755 47.22783800016915 0.0
    vertex -11.2649624641701 47.22783800016915 0.0
  endloop
endfacet
facet normal 0.0 1.0 0.0
  outer loop
    vertex -0.2649624641700755 47.22783800016915 0.0
    vertex -11.2649624641701 47.22783800016915 1.9999999999999998
    vertex -0.2649624641700755 47.22783800016915 1.9999999999999998
  endloop
endfacet
facet normal 0.0 -1.0 0.0
  outer loop
    vertex 5.735037535829913 3.627838000169139 1.9999999999999998
    vertex -6.664962464170109 3.627838000169139 0.9999999999999999
    vertex 5.735037535829913 3.627838000169139 0.9999999999999999
  endloop
endfacet
facet normal 0.0 -1.0 0.0
  outer loop
    vertex -6.664962464170109 3.627838000169139 0.9999999999999999
    vertex 5.735037535829913 3.627838000169139 1.9999999999999998
    vertex -6.664962464170109 3.627838000169139 1.9999999999999998
  endloop
endfacet
facet normal 0.0 1.0 0.0
  outer loop
    vertex -6.664962464170109 -15.772161999830848 7.999999999999999
    vertex 5.735037535829913 -15.772161999830848 1.9999999999999998
    vertex -6.664962464170109 -15.772161999830848 1.9999999999999998
  endloop
endfacet
facet normal 0.0 1.0 0.0
  outer loop
    vertex 5.735037535829913 -15.772161999830848 1.9999999999999998
    vertex -6.664962464170109 -15.772161999830848 7.999999999999999
    vertex 5.735037535829913 -15.772161999830848 7.999999999999999
  endloop
endfacet
facet normal -1.0 -0.0 -0.0
  outer loop
    vertex 5.735037535829913 -10.872161999830857 7.999999999999999
    vertex 5.735037535829913 -15.772161999830848 1.9999999999999998
    vertex 5.735037535829913 -15.772161999830848 7.999999999999999
  endloop
endfacet
facet normal -1.0 -0.0 -0.0
  outer loop
    vertex 5.735037535829913 -15.772161999830848 1.9999999999999998
    vertex 5.735037535829913 -10.872161999830857 7.999999999999999
    vertex 5.735037535829913 -10.872161999830857 1.9999999999999998
  endloop
endfacet
facet normal -0.8574929257125443 2.0925267401496893e-17 0.5144957554275265
  outer loop
    vertex -7.664962464170107 33.62783800016914 7.999999999999999
    vertex -11.2649624641701 19.50283800016915 1.9999999999999998
    vertex -7.664962464170107 19.50283800016915 7.999999999999999
  endloop
endfacet
facet normal -0.8574929257125443 2.0925267401496893e-17 0.5144957554275265
  outer loop
    vertex -11.2649624641701 19.50283800016915 1.9999999999999998
    vertex -7.664962464170107 33.62783800016914 7.999999999999999
    vertex -11.2649624641701 37.22783800016914 1.9999999999999998
  endloop
endfacet
facet normal 1.0 0.0 0.0
  outer loop
    vertex -6.664962464170109 -25.372161999830855 1.9999999999999998
    vertex -6.664962464170109 -30.27216199983085 7.999999999999999
    vertex -6.664962464170109 -30.27216199983085 1.9999999999999998
  endloop
endfacet
facet normal 1.0 0.0 0.0
  outer loop
    vertex -6.664962464170109 -30.27216199983085 7.999999999999999
    vertex -6.664962464170109 -25.372161999830855 1.9999999999999998
    vertex -6.664962464170109 -25.372161999830855 7.999999999999999
  endloop
endfacet
facet normal -1.0 0.0 0.0
  outer loop
    vertex 5.735037535829913 3.627838000169139 1.9999999999999998
    vertex 5.735037535829913 -1.2721619998308633 0.9999999999999999
    vertex 5.735037535829913 -1.2721619998308633 1.9999999999999998
  endloop
endfacet
facet normal -1.0 0.0 0.0
  outer loop
    vertex 5.735037535829913 -1.2721619998308633 0.9999999999999999
    vertex 5.735037535829913 3.627838000169139 1.9999999999999998
    vertex 5.735037535829913 3.627838000169139 0.9999999999999999
  endloop
endfacet
facet normal 0.0 -1.0 0.0
  outer loop
    vertex 5.735037535829913 -10.872161999830857 1.9999999999999998
    vertex -6.664962464170109 -10.872161999830857 0.9999999999999999
    vertex 5.735037535829913 -10.872161999830857 0.9999999999999999
  endloop
endfacet
facet normal 0.0 -1.0 0.0
  outer loop
    vertex -6.664962464170109 -10.872161999830857 0.9999999999999999
    vertex 5.735037535829913 -10.872161999830857 1.9999999999999998
    vertex -6.664962464170109 -10.872161999830857 1.9999999999999998
  endloop
endfacet
facet normal 0.0 0.0 1.0
  outer loop
    vertex 15.335037535829896 -39.87216199983085 1.9999999999999998
    vertex 10.735037535829905 -34.872161999830844 1.9999999999999998
    vertex 10.735037535829905 -39.87216199983085 1.9999999999999998
  endloop
endfacet
facet normal 0.0 0.0 1.0
  outer loop
    vertex 10.735037535829905 -34.872161999830844 1.9999999999999998
    vertex 15.335037535829896 -17.14716199983085 1.9999999999999998
    vertex 10.335037535829905 -17.14716199983085 1.9999999999999998
  endloop
endfacet
facet normal 0.0 0.0 1.0
  outer loop
    vertex 15.335037535829896 -17.14716199983085 1.9999999999999998
    vertex 10.735037535829905 -34.872161999830844 1.9999999999999998
    vertex 15.335037535829896 -39.87216199983085 1.9999999999999998
  endloop
endfacet
facet normal -1.0 0.0 0.0
  outer loop
    vertex -11.2649624641701 19.50283800016915 1.9999999999999998
    vertex -11.2649624641701 0.9778380001691439 0.0
    vertex -11.2649624641701 0.9778380001691439 1.9999999999999998
  endloop
endfacet
facet normal -1.0 0.0 0.0
  outer loop
    vertex -11.2649624641701 0.9778380001691439 0.0
    vertex -11.2649624641701 19.50283800016915 1.9999999999999998
    vertex -11.2649624641701 19.50283800016915 0.0
  endloop
endfacet
facet normal 0.0 -1.0 0.0
  outer loop
    vertex 5.735037535829913 -25.372161999830855 7.999999999999999
    vertex -6.664962464170109 -25.372161999830855 1.9999999999999998
    vertex 5.735037535829913 -25.372161999830855 1.9999999999999998
  endloop
endfacet
facet normal 0.0 -1.0 0.0
  outer loop
    vertex -6.664962464170109 -25.372161999830855 1.9999999999999998
    vertex 5.735037535829913 -25.372161999830855 7.999999999999999
    vertex -6.664962464170109 -25.372161999830855 7.999999999999999
  endloop
endfacet
facet normal -8.31358043203979e-18 -1.0 -0.0
  outer loop
    vertex -0.6649624641700748 -39.87216199983085 1.9999999999999998
    vertex -11.2649624641701 -39.87216199983085 0.0
    vertex -0.6649624641700748 -39.87216199983085 0.0
  endloop
endfacet
facet normal -8.31358043203979e-18 -1.0 -0.0
  outer loop
    vertex -11.2649624641701 -39.87216199983085 0.0
    vertex -0.6649624641700748 -39.87216199983085 1.9999999999999998
    vertex -11.2649624641701 -39.87216199983085 1.9999999999999998
  endloop
endfacet
facet normal 0.0 0.0 1.0
  outer loop
    vertex 15.335037535829896 1.377838000169143 1.9999999999999998
    vertex 10.335037535829905 19.10283800016915 1.9999999999999998
    vertex 10.335037535829905 1.377838000169143 1.9999999999999998
  endloop
endfacet
facet normal 0.0 0.0 1.0
  outer loop
    vertex 10.335037535829905 19.10283800016915 1.9999999999999998
    vertex 15.335037535829896 1.377838000169143 1.9999999999999998
    vertex 15.335037535829896 19.10283800016915 1.9999999999999998
  endloop
endfacet
facet normal -1.0 0.0 0.0
  outer loop
    vertex -16.26496246417009 37.22783800016914 1.9999999999999998
    vertex -16.26496246417009 19.50283800016915 0.0
    vertex -16.26496246417009 19.50283800016915 1.9999999999999998
  endloop
endfacet
facet normal -1.0 0.0 0.0
  outer loop
    vertex -16.26496246417009 19.50283800016915 0.0
    vertex -16.26496246417009 37.22783800016914 1.9999999999999998
    vertex -16.26496246417009 37.22783800016914 0.0
  endloop
endfacet
facet normal -0.0 -1.0 -0.0
  outer loop
    vertex -11.2649624641701 19.50283800016915 1.9999999999999998
    vertex -16.26496246417009 19.50283800016915 0.0
    vertex -11.2649624641701 19.50283800016915 0.0
  endloop
endfacet
facet normal -0.0 -1.0 -0.0
  outer loop
    vertex -16.26496246417009 19.50283800016915 0.0
    vertex -11.2649624641701 19.50283800016915 1.9999999999999998
    vertex -16.26496246417009 19.50283800016915 1.9999999999999998
  endloop
endfacet
facet normal 0.0 1.0 0.0
  outer loop
    vertex -16.26496246417009 37.22783800016914 1.9999999999999998
    vertex -11.2649624641701 37.22783800016914 0.0
    vertex -16.26496246417009 37.22783800016914 0.0
  endloop
endfacet
facet normal 0.0 1.0 0.0
  outer loop
    vertex -11.2649624641701 37.22783800016914 0.0
    vertex -16.26496246417009 37.22783800016914 1.9999999999999998
    vertex -11.2649624641701 37.22783800016914 1.9999999999999998
  endloop
endfacet
facet normal -1.0 0.0 0.0
  outer loop
    vertex -11.2649624641701 -32.76250043895019 1.9999999999999998
    vertex -11.2649624641701 -39.87216199983085 0.0
    vertex -11.2649624641701 -39.87216199983085 1.9999999999999998
  endloop
endfacet
facet normal -1.0 0.0 0.0
  outer loop
    vertex -11.2649624641701 -39.87216199983085 0.0
    vertex -11.2649624641701 -32.76250043895019 1.9999999999999998
    vertex -11.2649624641701 -16.74716199983085 0.0
  endloop
endfacet
facet normal -1.0 0.0 0.0
  outer loop
    vertex -11.2649624641701 -16.74716199983085 0.0
    vertex -11.2649624641701 -32.76250043895019 1.9999999999999998
    vertex -11.2649624641701 -16.74716199983085 1.9999999999999998
  endloop
endfacet
facet normal 0.0 1.0 0.0
  outer loop
    vertex 10.335037535829905 19.10283800016915 1.9999999999999998
    vertex 15.335037535829896 19.10283800016915 0.0
    vertex 10.335037535829905 19.10283800016915 0.0
  endloop
endfacet
facet normal 0.0 1.0 0.0
  outer loop
    vertex 15.335037535829896 19.10283800016915 0.0
    vertex 10.335037535829905 19.10283800016915 1.9999999999999998
    vertex 15.335037535829896 19.10283800016915 1.9999999999999998
  endloop
endfacet
facet normal 0.0 1.0 0.0
  outer loop
    vertex 10.335037535829905 47.22783800016915 1.9999999999999998
    vertex 15.335037535829896 47.22783800016915 0.0
    vertex 10.335037535829905 47.22783800016915 0.0
  endloop
endfacet
facet normal 0.0 1.0 0.0
  outer loop
    vertex 15.335037535829896 47.22783800016915 0.0
    vertex 10.335037535829905 47.22783800016915 1.9999999999999998
    vertex 15.335037535829896 47.22783800016915 1.9999999999999998
  endloop
endfacet
facet normal -1.0 0.0 0.0
  outer loop
    vertex -11.2649624641701 47.22783800016915 1.9999999999999998
    vertex -11.2649624641701 37.22783800016914 0.0
    vertex -11.2649624641701 37.22783800016914 1.9999999999999998
  endloop
endfacet
facet normal -1.0 0.0 0.0
  outer loop
    vertex -11.2649624641701 37.22783800016914 0.0
    vertex -11.2649624641701 47.22783800016915 1.9999999999999998
    vertex -11.2649624641701 47.22783800016915 0.0
  endloop
endfacet
facet normal 1.0 0.0 0.0
  outer loop
    vertex 15.335037535829896 -17.14716199983085 0.0
    vertex 15.335037535829896 -39.87216199983085 1.9999999999999998
    vertex 15.335037535829896 -39.87216199983085 0.0
  endloop
endfacet
facet normal 1.0 0.0 0.0
  outer loop
    vertex 15.335037535829896 -39.87216199983085 1.9999999999999998
    vertex 15.335037535829896 -17.14716199983085 0.0
    vertex 15.335037535829896 -17.14716199983085 1.9999999999999998
  endloop
endfacet
facet normal 0.8574929257125441 1.0264125456638308e-17 0.5144957554275267
  outer loop
    vertex 10.335037535829905 19.10283800016915 1.9999999999999998
    vertex 6.735037535829911 16.204913726805884 7.999999999999999
    vertex 10.335037535829905 1.377838000169143 1.9999999999999998
  endloop
endfacet
facet normal 0.8370960922860247 0.018890743972604172 0.546729615140454
  outer loop
    vertex 10.335037535829905 -17.14716199983085 1.9999999999999998
    vertex 6.735037535829911 -31.272161999830846 7.999999999999999
    vertex 10.735037535829905 -34.872161999830844 1.9999999999999998
  endloop
endfacet
facet normal 1.0 0.0 0.0
  outer loop
    vertex -6.664962464170109 -10.872161999830857 1.9999999999999998
    vertex -6.664962464170109 -15.772161999830848 7.999999999999999
    vertex -6.664962464170109 -15.772161999830848 1.9999999999999998
  endloop
endfacet
facet normal 1.0 0.0 0.0
  outer loop
    vertex -6.664962464170109 -15.772161999830848 7.999999999999999
    vertex -6.664962464170109 -10.872161999830857 1.9999999999999998
    vertex -6.664962464170109 -10.872161999830857 7.999999999999999
  endloop
endfacet
facet normal 0.0 0.0 1.0
  outer loop
    vertex -0.6649624641700748 -39.87216199983085 1.9999999999999998
    vertex -11.2649624641701 -32.76250043895019 1.9999999999999998
    vertex -11.2649624641701 -39.87216199983085 1.9999999999999998
  endloop
endfacet
facet normal 0.0 0.0 1.0
  outer loop
    vertex -11.2649624641701 -32.76250043895019 1.9999999999999998
    vertex -0.6649624641700748 -39.87216199983085 1.9999999999999998
    vertex -0.6649624641700748 -34.872161999830844 1.9999999999999998
  endloop
endfacet
facet normal -0.8574929257125443 -8.445766952029212e-18 0.5144957554275265
  outer loop
    vertex -7.664962464170107 -10.098673506947067 7.999999999999999
    vertex -11.2649624641701 0.9778380001691439 1.9999999999999998
    vertex -11.2649624641701 -16.74716199983085 1.9999999999999998
  endloop
endfacet
facet normal -0.8574929257125443 -8.445766952029212e-18 0.5144957554275265
  outer loop
    vertex -11.2649624641701 0.9778380001691439 1.9999999999999998
    vertex -7.664962464170107 -10.098673506947067 7.999999999999999
    vertex -7.664962464170107 3.8624800201226104 7.999999999999999
  endloop
endfacet
facet normal 0.0 0.0 1.0
  outer loop
    vertex -11.2649624641701 -32.76250043895019 1.9999999999999998
    vertex -6.664962464170109 -30.27216199983085 1.9999999999999998
    vertex -11.2649624641701 -16.74716199983085 1.9999999999999998
  endloop
endfacet
facet normal 0.0 0.0 1.0
  outer loop
    vertex -6.664962464170109 -30.27216199983085 1.9999999999999998
    vertex -11.2649624641701 -32.76250043895019 1.9999999999999998
    vertex -0.6649624641700748 -34.872161999830844 1.9999999999999998
  endloop
endfacet
facet normal 0.0 0.0 1.0
  outer loop
    vertex -11.2649624641701 -16.74716199983085 1.9999999999999998
    vertex -6.664962464170109 -30.27216199983085 1.9999999999999998
    vertex -11.2649624641701 0.9778380001691439 1.9999999999999998
  endloop
endfacet
facet normal 0.0 0.0 1.0
  outer loop
    vertex -11.2649624641701 0.9778380001691439 1.9999999999999998
    vertex -6.664962464170109 -30.27216199983085 1.9999999999999998
    vertex -11.2649624641701 19.50283800016915 1.9999999999999998
  endloop
endfacet
facet normal 0.0 0.0 1.0
  outer loop
    vertex -11.2649624641701 19.50283800016915 1.9999999999999998
    vertex -6.664962464170109 -30.27216199983085 1.9999999999999998
    vertex -11.2649624641701 37.22783800016914 1.9999999999999998
  endloop
endfacet
facet normal 0.0 0.0 1.0
  outer loop
    vertex -6.664962464170109 -30.27216199983085 1.9999999999999998
    vertex -0.6649624641700748 -34.872161999830844 1.9999999999999998
    vertex 5.735037535829913 -30.27216199983085 1.9999999999999998
  endloop
endfacet
facet normal 0.0 0.0 1.0
  outer loop
    vertex 5.735037535829913 -30.27216199983085 1.9999999999999998
    vertex -0.6649624641700748 -34.872161999830844 1.9999999999999998
    vertex 10.735037535829905 -34.872161999830844 1.9999999999999998
  endloop
endfacet
facet normal 0.0 0.0 1.0
  outer loop
    vertex 5.735037535829913 -30.27216199983085 1.9999999999999998
    vertex 10.735037535829905 -34.872161999830844 1.9999999999999998
    vertex 5.735037535829913 -25.372161999830855 1.9999999999999998
  endloop
endfacet
facet normal 0.0 0.0 1.0
  outer loop
    vertex 5.735037535829913 -25.372161999830855 1.9999999999999998
    vertex 10.735037535829905 -34.872161999830844 1.9999999999999998
    vertex 5.735037535829913 -15.772161999830848 1.9999999999999998
  endloop
endfacet
facet normal 0.0 0.0 1.0
  outer loop
    vertex 5.735037535829913 -15.772161999830848 1.9999999999999998
    vertex 10.735037535829905 -34.872161999830844 1.9999999999999998
    vertex 5.735037535829913 -10.872161999830857 1.9999999999999998
  endloop
endfacet
facet normal 0.0 0.0 1.0
  outer loop
    vertex 5.735037535829913 -10.872161999830857 1.9999999999999998
    vertex 10.735037535829905 -34.872161999830844 1.9999999999999998
    vertex 5.735037535829913 -1.2721619998308633 1.9999999999999998
  endloop
endfacet
facet normal 0.0 0.0 1.0
  outer loop
    vertex 5.735037535829913 -1.2721619998308633 1.9999999999999998
    vertex 10.735037535829905 -34.872161999830844 1.9999999999999998
    vertex 5.735037535829913 3.627838000169139 1.9999999999999998
  endloop
endfacet
facet normal 0.0 0.0 1.0
  outer loop
    vertex 5.735037535829913 3.627838000169139 1.9999999999999998
    vertex 10.735037535829905 -34.872161999830844 1.9999999999999998
    vertex 5.735037535829913 13.227838000169143 1.9999999999999998
  endloop
endfacet
facet normal 0.0 0.0 1.0
  outer loop
    vertex 5.735037535829913 13.227838000169143 1.9999999999999998
    vertex 10.735037535829905 -34.872161999830844 1.9999999999999998
    vertex 5.735037535829913 18.127838000169135 1.9999999999999998
  endloop
endfacet
facet normal 0.0 0.0 1.0
  outer loop
    vertex 5.735037535829913 18.127838000169135 1.9999999999999998
    vertex 10.735037535829905 -34.872161999830844 1.9999999999999998
    vertex 5.735037535829913 27.72783800016914 1.9999999999999998
  endloop
endfacet
facet normal 0.0 0.0 1.0
  outer loop
    vertex 5.735037535829913 27.72783800016914 1.9999999999999998
    vertex 10.735037535829905 -34.872161999830844 1.9999999999999998
    vertex 5.735037535829913 32.62783800016914 1.9999999999999998
  endloop
endfacet
facet normal 0.0 0.0 1.0
  outer loop
    vertex 5.735037535829913 32.62783800016914 1.9999999999999998
    vertex 10.735037535829905 -34.872161999830844 1.9999999999999998
    vertex 10.335037535829905 -17.14716199983085 1.9999999999999998
  endloop
endfacet
facet normal 0.0 0.0 1.0
  outer loop
    vertex -11.2649624641701 37.22783800016914 1.9999999999999998
    vertex -6.664962464170109 32.62783800016914 1.9999999999999998
    vertex 10.335037535829905 37.62783800016914 1.9999999999999998
  endloop
endfacet
facet normal 0.0 0.0 1.0
  outer loop
    vertex -6.664962464170109 32.62783800016914 1.9999999999999998
    vertex -11.2649624641701 37.22783800016914 1.9999999999999998
    vertex -6.664962464170109 -30.27216199983085 1.9999999999999998
  endloop
endfacet
facet normal 0.0 0.0 1.0
  outer loop
    vertex -6.664962464170109 32.62783800016914 1.9999999999999998
    vertex -6.664962464170109 -30.27216199983085 1.9999999999999998
    vertex -6.664962464170109 -25.372161999830855 1.9999999999999998
  endloop
endfacet
facet normal 0.0 0.0 1.0
  outer loop
    vertex -6.664962464170109 32.62783800016914 1.9999999999999998
    vertex -6.664962464170109 -25.372161999830855 1.9999999999999998
    vertex -6.664962464170109 -15.772161999830848 1.9999999999999998
  endloop
endfacet
facet normal 0.0 0.0 1.0
  outer loop
    vertex -6.664962464170109 32.62783800016914 1.9999999999999998
    vertex -6.664962464170109 -15.772161999830848 1.9999999999999998
    vertex -6.664962464170109 -10.872161999830857 1.9999999999999998
  endloop
endfacet
facet normal 0.0 0.0 1.0
  outer loop
    vertex -6.664962464170109 32.62783800016914 1.9999999999999998
    vertex -6.664962464170109 -10.872161999830857 1.9999999999999998
    vertex -6.664962464170109 -1.272161999830852 1.9999999999999998
  endloop
endfacet
facet normal 0.0 0.0 1.0
  outer loop
    vertex -6.664962464170109 32.62783800016914 1.9999999999999998
    vertex -6.664962464170109 -1.272161999830852 1.9999999999999998
    vertex -6.664962464170109 3.627838000169139 1.9999999999999998
  endloop
endfacet
facet normal 0.0 0.0 1.0
  outer loop
    vertex -6.664962464170109 32.62783800016914 1.9999999999999998
    vertex -6.664962464170109 3.627838000169139 1.9999999999999998
    vertex -6.664962464170109 13.227838000169143 1.9999999999999998
  endloop
endfacet
facet normal 0.0 0.0 1.0
  outer loop
    vertex -6.664962464170109 32.62783800016914 1.9999999999999998
    vertex -6.664962464170109 13.227838000169143 1.9999999999999998
    vertex -6.664962464170109 18.127838000169135 1.9999999999999998
  endloop
endfacet
facet normal 0.0 0.0 1.0
  outer loop
    vertex -6.664962464170109 32.62783800016914 1.9999999999999998
    vertex -6.664962464170109 18.127838000169135 1.9999999999999998
    vertex -6.664962464170109 27.72783800016914 1.9999999999999998
  endloop
endfacet
facet normal 0.0 0.0 1.0
  outer loop
    vertex 10.335037535829905 37.62783800016914 1.9999999999999998
    vertex -6.664962464170109 32.62783800016914 1.9999999999999998
    vertex 5.735037535829913 32.62783800016914 1.9999999999999998
  endloop
endfacet
facet normal 0.0 0.0 1.0
  outer loop
    vertex 10.335037535829905 37.62783800016914 1.9999999999999998
    vertex 5.735037535829913 32.62783800016914 1.9999999999999998
    vertex 10.335037535829905 -17.14716199983085 1.9999999999999998
  endloop
endfacet
facet normal 0.0 0.0 1.0
  outer loop
    vertex 10.335037535829905 37.62783800016914 1.9999999999999998
    vertex 10.335037535829905 -17.14716199983085 1.9999999999999998
    vertex 10.335037535829905 1.377838000169143 1.9999999999999998
  endloop
endfacet
facet normal 0.0 0.0 1.0
  outer loop
    vertex 10.335037535829905 37.62783800016914 1.9999999999999998
    vertex 10.335037535829905 1.377838000169143 1.9999999999999998
    vertex 10.335037535829905 19.10283800016915 1.9999999999999998
  endloop
endfacet
facet normal 0.0 0.0 1.0
  outer loop
    vertex 5.735037535829913 18.127838000169135 1.9999999999999998
    vertex -6.664962464170109 27.72783800016914 1.9999999999999998
    vertex -6.664962464170109 18.127838000169135 1.9999999999999998
  endloop
endfacet
facet normal 0.0 0.0 1.0
  outer loop
    vertex -6.664962464170109 27.72783800016914 1.9999999999999998
    vertex 5.735037535829913 18.127838000169135 1.9999999999999998
    vertex 5.735037535829913 27.72783800016914 1.9999999999999998
  endloop
endfacet
facet normal 0.0 0.0 1.0
  outer loop
    vertex 5.735037535829913 3.627838000169139 1.9999999999999998
    vertex -6.664962464170109 13.227838000169143 1.9999999999999998
    vertex -6.664962464170109 3.627838000169139 1.9999999999999998
  endloop
endfacet
facet normal 0.0 0.0 1.0
  outer loop
    vertex -6.664962464170109 13.227838000169143 1.9999999999999998
    vertex 5.735037535829913 3.627838000169139 1.9999999999999998
    vertex 5.735037535829913 13.227838000169143 1.9999999999999998
  endloop
endfacet
facet normal 0.0 0.0 1.0
  outer loop
    vertex 5.735037535829913 -10.872161999830857 1.9999999999999998
    vertex -6.664962464170109 -1.272161999830852 1.9999999999999998
    vertex -6.664962464170109 -10.872161999830857 1.9999999999999998
  endloop
endfacet
facet normal 0.0 0.0 1.0
  outer loop
    vertex -6.664962464170109 -1.272161999830852 1.9999999999999998
    vertex 5.735037535829913 -10.872161999830857 1.9999999999999998
    vertex 5.735037535829913 -1.2721619998308633 1.9999999999999998
  endloop
endfacet
facet normal 0.0 0.0 1.0
  outer loop
    vertex 5.735037535829913 -25.372161999830855 1.9999999999999998
    vertex -6.664962464170109 -15.772161999830848 1.9999999999999998
    vertex -6.664962464170109 -25.372161999830855 1.9999999999999998
  endloop
endfacet
facet normal 0.0 0.0 1.0
  outer loop
    vertex -6.664962464170109 -15.772161999830848 1.9999999999999998
    vertex 5.735037535829913 -25.372161999830855 1.9999999999999998
    vertex 5.735037535829913 -15.772161999830848 1.9999999999999998
  endloop
endfacet
facet normal -1.0 0.0 0.0
  outer loop
    vertex 5.735037535829913 18.127838000169135 1.9999999999999998
    vertex 5.735037535829913 13.227838000169143 0.9999999999999999
    vertex 5.735037535829913 13.227838000169143 1.9999999999999998
  endloop
endfacet
facet normal -1.0 0.0 0.0
  outer loop
    vertex 5.735037535829913 13.227838000169143 0.9999999999999999
    vertex 5.735037535829913 18.127838000169135 1.9999999999999998
    vertex 5.735037535829913 18.127838000169135 0.9999999999999999
  endloop
endfacet
facet normal 0.0 0.0 -1.0
  outer loop
    vertex -0.9649624641700968 41.927838000169146 0.0
    vertex -2.4649624641700716 40.42783800016915 0.0
    vertex -2.4649624641700716 41.927838000169146 0.0
  endloop
endfacet
facet normal 0.0 0.0 -1.0
  outer loop
    vertex 10.335037535829905 52.22783800016914 0.0
    vertex -0.2649624641700755 47.22783800016915 0.0
    vertex -0.2649624641700755 52.22783800016914 0.0
  endloop
endfacet
facet normal 0.0 0.0 -1.0
  outer loop
    vertex -0.2649624641700755 47.22783800016915 0.0
    vertex 10.335037535829905 52.22783800016914 0.0
    vertex 0.5350375358298779 42.927838000169146 0.0
  endloop
endfacet
facet normal 0.0 0.0 -1.0
  outer loop
    vertex 0.5350375358298779 42.927838000169146 0.0
    vertex 10.335037535829905 52.22783800016914 0.0
    vertex 3.5350375358299173 42.927838000169146 0.0
  endloop
endfacet
facet normal 0.0 0.0 -1.0
  outer loop
    vertex 3.5350375358299173 42.927838000169146 0.0
    vertex 10.335037535829905 52.22783800016914 0.0
    vertex 3.5350375358299173 41.927838000169146 0.0
  endloop
endfacet
facet normal 0.0 0.0 -1.0
  outer loop
    vertex 15.335037535829896 47.22783800016915 0.0
    vertex 10.335037535829905 37.62783800016914 0.0
    vertex 10.335037535829905 47.22783800016915 0.0
  endloop
endfacet
facet normal 0.0 0.0 -1.0
  outer loop
    vertex 10.335037535829905 37.62783800016914 0.0
    vertex 15.335037535829896 47.22783800016915 0.0
    vertex 15.335037535829896 37.62783800016914 0.0
  endloop
endfacet
facet normal 0.0 0.0 -1.0
  outer loop
    vertex 15.335037535829896 19.10283800016915 0.0
    vertex 10.335037535829905 1.377838000169143 0.0
    vertex 10.335037535829905 19.10283800016915 0.0
  endloop
endfacet
facet normal 0.0 0.0 -1.0
  outer loop
    vertex 10.335037535829905 1.377838000169143 0.0
    vertex 15.335037535829896 19.10283800016915 0.0
    vertex 15.335037535829896 1.377838000169143 0.0
  endloop
endfacet
facet normal 0.0 0.0 -1.0
  outer loop
    vertex -11.2649624641701 47.22783800016915 0.0
    vertex -3.4649624641701147 44.427838000169146 0.0
    vertex -11.2649624641701 37.22783800016914 0.0
  endloop
endfacet
facet normal 0.0 0.0 -1.0
  outer loop
    vertex -3.4649624641701147 44.427838000169146 0.0
    vertex -11.2649624641701 47.22783800016915 0.0
    vertex -0.2649624641700755 47.22783800016915 0.0
  endloop
endfacet
facet normal 0.0 0.0 -1.0
  outer loop
    vertex -11.2649624641701 37.22783800016914 0.0
    vertex -3.4649624641701147 44.427838000169146 0.0
    vertex -4.96496246417009 42.927838000169146 0.0
  endloop
endfacet
facet normal 0.0 0.0 -1.0
  outer loop
    vertex -11.2649624641701 37.22783800016914 0.0
    vertex -4.96496246417009 42.927838000169146 0.0
    vertex -11.2649624641701 19.50283800016915 0.0
  endloop
endfacet
facet normal 0.0 0.0 -1.0
  outer loop
    vertex -11.2649624641701 19.50283800016915 0.0
    vertex -4.96496246417009 42.927838000169146 0.0
    vertex -11.2649624641701 0.9778380001691439 0.0
  endloop
endfacet
facet normal 0.0 0.0 -1.0
  outer loop
    vertex -11.2649624641701 0.9778380001691439 0.0
    vertex -4.96496246417009 42.927838000169146 0.0
    vertex -11.2649624641701 -16.74716199983085 0.0
  endloop
endfacet
facet normal 0.0 0.0 -1.0
  outer loop
    vertex -11.2649624641701 -16.74716199983085 0.0
    vertex -4.96496246417009 42.927838000169146 0.0
    vertex -11.2649624641701 -39.87216199983085 0.0
  endloop
endfacet
facet normal 0.0 0.0 -1.0
  outer loop
    vertex -3.4649624641701147 44.427838000169146 0.0
    vertex -0.2649624641700755 47.22783800016915 0.0
    vertex -2.4649624641700716 44.427838000169146 0.0
  endloop
endfacet
facet normal 0.0 0.0 -1.0
  outer loop
    vertex -2.4649624641700716 44.427838000169146 0.0
    vertex -0.2649624641700755 47.22783800016915 0.0
    vertex -2.4649624641700716 42.927838000169146 0.0
  endloop
endfacet
facet normal 0.0 0.0 -1.0
  outer loop
    vertex -2.4649624641700716 42.927838000169146 0.0
    vertex -0.2649624641700755 47.22783800016915 0.0
    vertex -0.9649624641700968 42.927838000169146 0.0
  endloop
endfacet
facet normal 0.0 0.0 -1.0
  outer loop
    vertex -0.9649624641700968 42.927838000169146 0.0
    vertex -0.2649624641700755 47.22783800016915 0.0
    vertex -0.9649624641700968 41.927838000169146 0.0
  endloop
endfacet
facet normal 0.0 0.0 -1.0
  outer loop
    vertex -0.9649624641700968 41.927838000169146 0.0
    vertex -0.2649624641700755 47.22783800016915 0.0
    vertex -0.6649624641700748 -34.872161999830844 0.0
  endloop
endfacet
facet normal 0.0 0.0 -1.0
  outer loop
    vertex -0.6649624641700748 -34.872161999830844 0.0
    vertex -0.2649624641700755 47.22783800016915 0.0
    vertex 10.735037535829905 -34.872161999830844 0.0
  endloop
endfacet
facet normal 0.0 0.0 -1.0
  outer loop
    vertex 10.735037535829905 -34.872161999830844 0.0
    vertex -0.2649624641700755 47.22783800016915 0.0
    vertex 0.5350375358298779 41.927838000169146 0.0
  endloop
endfacet
facet normal 0.0 0.0 -1.0
  outer loop
    vertex 0.5350375358298779 41.927838000169146 0.0
    vertex -0.2649624641700755 47.22783800016915 0.0
    vertex 0.5350375358298779 42.927838000169146 0.0
  endloop
endfacet
facet normal 0.0 0.0 -1.0
  outer loop
    vertex 10.735037535829905 -34.872161999830844 0.0
    vertex 0.5350375358298779 41.927838000169146 0.0
    vertex 3.5350375358299173 41.927838000169146 0.0
  endloop
endfacet
facet normal 0.0 0.0 -1.0
  outer loop
    vertex 10.735037535829905 -34.872161999830844 0.0
    vertex 3.5350375358299173 41.927838000169146 0.0
    vertex 10.335037535829905 -17.14716199983085 0.0
  endloop
endfacet
facet normal 0.0 0.0 -1.0
  outer loop
    vertex 10.335037535829905 -17.14716199983085 0.0
    vertex 3.5350375358299173 41.927838000169146 0.0
    vertex 10.335037535829905 52.22783800016914 0.0
  endloop
endfacet
facet normal 0.0 0.0 -1.0
  outer loop
    vertex 10.335037535829905 -17.14716199983085 0.0
    vertex 10.335037535829905 52.22783800016914 0.0
    vertex 10.335037535829905 47.22783800016915 0.0
  endloop
endfacet
facet normal 0.0 0.0 -1.0
  outer loop
    vertex 10.335037535829905 -17.14716199983085 0.0
    vertex 10.335037535829905 47.22783800016915 0.0
    vertex 10.335037535829905 37.62783800016914 0.0
  endloop
endfacet
facet normal 0.0 0.0 -1.0
  outer loop
    vertex 10.335037535829905 -17.14716199983085 0.0
    vertex 10.335037535829905 37.62783800016914 0.0
    vertex 10.335037535829905 19.10283800016915 0.0
  endloop
endfacet
facet normal 0.0 0.0 -1.0
  outer loop
    vertex 10.335037535829905 -17.14716199983085 0.0
    vertex 10.335037535829905 19.10283800016915 0.0
    vertex 10.335037535829905 1.377838000169143 0.0
  endloop
endfacet
facet normal 0.0 0.0 -1.0
  outer loop
    vertex 10.735037535829905 -34.872161999830844 0.0
    vertex 10.335037535829905 -17.14716199983085 0.0
    vertex 15.335037535829896 -17.14716199983085 0.0
  endloop
endfacet
facet normal 0.0 0.0 -1.0
  outer loop
    vertex 10.735037535829905 -34.872161999830844 0.0
    vertex 15.335037535829896 -17.14716199983085 0.0
    vertex 10.735037535829905 -39.87216199983085 0.0
  endloop
endfacet
facet normal 0.0 0.0 -1.0
  outer loop
    vertex 10.735037535829905 -39.87216199983085 0.0
    vertex 15.335037535829896 -17.14716199983085 0.0
    vertex 15.335037535829896 -39.87216199983085 0.0
  endloop
endfacet
facet normal 0.0 0.0 -1.0
  outer loop
    vertex -11.2649624641701 -39.87216199983085 0.0
    vertex -4.96496246417009 41.927838000169146 0.0
    vertex -0.6649624641700748 -39.87216199983085 0.0
  endloop
endfacet
facet normal 0.0 0.0 -1.0
  outer loop
    vertex -4.96496246417009 41.927838000169146 0.0
    vertex -11.2649624641701 -39.87216199983085 0.0
    vertex -4.96496246417009 42.927838000169146 0.0
  endloop
endfacet
facet normal 0.0 0.0 -1.0
  outer loop
    vertex -0.6649624641700748 -39.87216199983085 0.0
    vertex -4.96496246417009 41.927838000169146 0.0
    vertex -3.4649624641701147 40.42783800016915 0.0
  endloop
endfacet
facet normal 0.0 0.0 -1.0
  outer loop
    vertex -3.4649624641701147 40.42783800016915 0.0
    vertex -4.96496246417009 41.927838000169146 0.0
    vertex -3.4649624641701147 41.927838000169146 0.0
  endloop
endfacet
facet normal 0.0 0.0 -1.0
  outer loop
    vertex -0.6649624641700748 -39.87216199983085 0.0
    vertex -3.4649624641701147 40.42783800016915 0.0
    vertex -2.4649624641700716 40.42783800016915 0.0
  endloop
endfacet
facet normal 0.0 0.0 -1.0
  outer loop
    vertex -0.6649624641700748 -39.87216199983085 0.0
    vertex -2.4649624641700716 40.42783800016915 0.0
    vertex -0.9649624641700968 41.927838000169146 0.0
  endloop
endfacet
facet normal 0.0 0.0 -1.0
  outer loop
    vertex -0.6649624641700748 -39.87216199983085 0.0
    vertex -0.9649624641700968 41.927838000169146 0.0
    vertex -0.6649624641700748 -34.872161999830844 0.0
  endloop
endfacet
facet normal 0.0 0.0 -1.0
  outer loop
    vertex -3.4649624641701147 42.927838000169146 0.0
    vertex -4.96496246417009 42.927838000169146 0.0
    vertex -3.4649624641701147 44.427838000169146 0.0
  endloop
endfacet
facet normal 0.0 0.0 -1.0
  outer loop
    vertex -11.2649624641701 0.9778380001691439 0.0
    vertex -16.26496246417009 -16.74716199983085 0.0
    vertex -16.26496246417009 0.9778380001691439 0.0
  endloop
endfacet
facet normal 0.0 0.0 -1.0
  outer loop
    vertex -16.26496246417009 -16.74716199983085 0.0
    vertex -11.2649624641701 0.9778380001691439 0.0
    vertex -11.2649624641701 -16.74716199983085 0.0
  endloop
endfacet
facet normal 0.0 0.0 -1.0
  outer loop
    vertex -11.2649624641701 37.22783800016914 0.0
    vertex -16.26496246417009 19.50283800016915 0.0
    vertex -16.26496246417009 37.22783800016914 0.0
  endloop
endfacet
facet normal 0.0 0.0 -1.0
  outer loop
    vertex -16.26496246417009 19.50283800016915 0.0
    vertex -11.2649624641701 37.22783800016914 0.0
    vertex -11.2649624641701 19.50283800016915 0.0
  endloop
endfacet
facet normal 0.0 -1.0 0.0
  outer loop
    vertex 5.735037535829913 18.127838000169135 1.9999999999999998
    vertex -6.664962464170109 18.127838000169135 0.9999999999999999
    vertex 5.735037535829913 18.127838000169135 0.9999999999999999
  endloop
endfacet
facet normal 0.0 -1.0 0.0
  outer loop
    vertex -6.664962464170109 18.127838000169135 0.9999999999999999
    vertex 5.735037535829913 18.127838000169135 1.9999999999999998
    vertex -6.664962464170109 18.127838000169135 1.9999999999999998
  endloop
endfacet
facet normal 0.0 -1.0 0.0
  outer loop
    vertex 5.735037535829913 -25.372161999830855 1.9999999999999998
    vertex -6.664962464170109 -25.372161999830855 0.9999999999999999
    vertex 5.735037535829913 -25.372161999830855 0.9999999999999999
  endloop
endfacet
facet normal 0.0 -1.0 0.0
  outer loop
    vertex -6.664962464170109 -25.372161999830855 0.9999999999999999
    vertex 5.735037535829913 -25.372161999830855 1.9999999999999998
    vertex -6.664962464170109 -25.372161999830855 1.9999999999999998
  endloop
endfacet
facet normal -0.8574929257125443 -3.0502297488648756e-17 0.5144957554275263
  outer loop
    vertex -7.664962464170107 -31.272161999830846 7.999999999999999
    vertex -11.2649624641701 -16.74716199983085 1.9999999999999998
    vertex -11.2649624641701 -32.76250043895019 1.9999999999999998
  endloop
endfacet
facet normal -0.8574929257125443 -3.0502297488648756e-17 0.5144957554275263
  outer loop
    vertex -11.2649624641701 -16.74716199983085 1.9999999999999998
    vertex -7.664962464170107 -31.272161999830846 7.999999999999999
    vertex -7.664962464170107 -10.098673506947067 7.999999999999999
  endloop
endfacet
facet normal -2.549300786922609e-17 -0.8574929257125443 0.5144957554275266
  outer loop
    vertex 6.735037535829911 -31.272161999830846 7.999999999999999
    vertex -0.6649624641700748 -34.872161999830844 1.9999999999999998
    vertex 10.735037535829905 -34.872161999830844 1.9999999999999998
  endloop
endfacet
facet normal -2.549300786922609e-17 -0.8574929257125443 0.5144957554275266
  outer loop
    vertex -0.6649624641700748 -34.872161999830844 1.9999999999999998
    vertex 6.735037535829911 -31.272161999830846 7.999999999999999
    vertex -7.664962464170107 -31.272161999830846 7.999999999999999
  endloop
endfacet
facet normal 0.0 0.0 1.0
  outer loop
    vertex -11.2649624641701 -16.74716199983085 1.9999999999999998
    vertex -16.26496246417009 0.9778380001691439 1.9999999999999998
    vertex -16.26496246417009 -16.74716199983085 1.9999999999999998
  endloop
endfacet
facet normal 0.0 0.0 1.0
  outer loop
    vertex -16.26496246417009 0.9778380001691439 1.9999999999999998
    vertex -11.2649624641701 -16.74716199983085 1.9999999999999998
    vertex -11.2649624641701 0.9778380001691439 1.9999999999999998
  endloop
endfacet
facet normal 0.0 0.0 1.0
  outer loop
    vertex -7.664962464170107 -31.272161999830846 7.999999999999999
    vertex -6.664962464170109 -30.27216199983085 7.999999999999999
    vertex -7.664962464170107 -10.098673506947067 7.999999999999999
  endloop
endfacet
facet normal 0.0 0.0 1.0
  outer loop
    vertex -6.664962464170109 -30.27216199983085 7.999999999999999
    vertex -7.664962464170107 -31.272161999830846 7.999999999999999
    vertex 6.735037535829911 -31.272161999830846 7.999999999999999
  endloop
endfacet
facet normal 0.0 0.0 1.0
  outer loop
    vertex -7.664962464170107 -10.098673506947067 7.999999999999999
    vertex -6.664962464170109 -30.27216199983085 7.999999999999999
    vertex -7.664962464170107 3.8624800201226104 7.999999999999999
  endloop
endfacet
facet normal 0.0 0.0 1.0
  outer loop
    vertex -7.664962464170107 3.8624800201226104 7.999999999999999
    vertex -6.664962464170109 -30.27216199983085 7.999999999999999
    vertex -7.664962464170107 19.50283800016915 7.999999999999999
  endloop
endfacet
facet normal 0.0 0.0 1.0
  outer loop
    vertex -7.664962464170107 19.50283800016915 7.999999999999999
    vertex -6.664962464170109 -30.27216199983085 7.999999999999999
    vertex -7.664962464170107 33.62783800016914 7.999999999999999
  endloop
endfacet
facet normal 0.0 0.0 1.0
  outer loop
    vertex -6.664962464170109 -30.27216199983085 7.999999999999999
    vertex 6.735037535829911 -31.272161999830846 7.999999999999999
    vertex 5.735037535829913 -30.27216199983085 7.999999999999999
  endloop
endfacet
facet normal 0.0 0.0 1.0
  outer loop
    vertex 5.735037535829913 -30.27216199983085 7.999999999999999
    vertex 6.735037535829911 -31.272161999830846 7.999999999999999
    vertex 5.735037535829913 -25.372161999830855 7.999999999999999
  endloop
endfacet
facet normal 0.0 0.0 1.0
  outer loop
    vertex 5.735037535829913 -25.372161999830855 7.999999999999999
    vertex 6.735037535829911 -31.272161999830846 7.999999999999999
    vertex 5.735037535829913 -15.772161999830848 7.999999999999999
  endloop
endfacet
facet normal 0.0 0.0 1.0
  outer loop
    vertex 5.735037535829913 -15.772161999830848 7.999999999999999
    vertex 6.735037535829911 -31.272161999830846 7.999999999999999
    vertex 5.735037535829913 -10.872161999830857 7.999999999999999
  endloop
endfacet
facet normal 0.0 0.0 1.0
  outer loop
    vertex 5.735037535829913 -10.872161999830857 7.999999999999999
    vertex 6.735037535829911 -31.272161999830846 7.999999999999999
    vertex 5.735037535829913 -1.2721619998308633 7.999999999999999
  endloop
endfacet
facet normal 0.0 0.0 1.0
  outer loop
    vertex 5.735037535829913 -1.2721619998308633 7.999999999999999
    vertex 6.735037535829911 -31.272161999830846 7.999999999999999
    vertex 5.735037535829913 3.627838000169139 7.999999999999999
  endloop
endfacet
facet normal 0.0 0.0 1.0
  outer loop
    vertex 5.735037535829913 3.627838000169139 7.999999999999999
    vertex 6.735037535829911 -31.272161999830846 7.999999999999999
    vertex 5.735037535829913 13.227838000169143 7.999999999999999
  endloop
endfacet
facet normal 0.0 0.0 1.0
  outer loop
    vertex 5.735037535829913 13.227838000169143 7.999999999999999
    vertex 6.735037535829911 -31.272161999830846 7.999999999999999
    vertex 5.735037535829913 18.127838000169135 7.999999999999999
  endloop
endfacet
facet normal 0.0 0.0 1.0
  outer loop
    vertex 5.735037535829913 18.127838000169135 7.999999999999999
    vertex 6.735037535829911 -31.272161999830846 7.999999999999999
    vertex 5.735037535829913 27.72783800016914 7.999999999999999
  endloop
endfacet
facet normal 0.0 0.0 1.0
  outer loop
    vertex 5.735037535829913 27.72783800016914 7.999999999999999
    vertex 6.735037535829911 -31.272161999830846 7.999999999999999
    vertex 5.735037535829913 32.62783800016914 7.999999999999999
  endloop
endfacet
facet normal 0.0 0.0 1.0
  outer loop
    vertex -7.664962464170107 33.62783800016914 7.999999999999999
    vertex -6.664962464170109 32.62783800016914 7.999999999999999
    vertex 6.735037535829911 33.62783800016914 7.999999999999999
  endloop
endfacet
facet normal 0.0 0.0 1.0
  outer loop
    vertex -6.664962464170109 32.62783800016914 7.999999999999999
    vertex -7.664962464170107 33.62783800016914 7.999999999999999
    vertex -6.664962464170109 -30.27216199983085 7.999999999999999
  endloop
endfacet
facet normal 0.0 0.0 1.0
  outer loop
    vertex -6.664962464170109 32.62783800016914 7.999999999999999
    vertex -6.664962464170109 -30.27216199983085 7.999999999999999
    vertex -6.664962464170109 -25.372161999830855 7.999999999999999
  endloop
endfacet
facet normal 0.0 0.0 1.0
  outer loop
    vertex -6.664962464170109 32.62783800016914 7.999999999999999
    vertex -6.664962464170109 -25.372161999830855 7.999999999999999
    vertex -6.664962464170109 -15.772161999830848 7.999999999999999
  endloop
endfacet
facet normal 0.0 0.0 1.0
  outer loop
    vertex -6.664962464170109 32.62783800016914 7.999999999999999
    vertex -6.664962464170109 -15.772161999830848 7.999999999999999
    vertex -6.664962464170109 -10.872161999830857 7.999999999999999
  endloop
endfacet
facet normal 0.0 0.0 1.0
  outer loop
    vertex -6.664962464170109 32.62783800016914 7.999999999999999
    vertex -6.664962464170109 -10.872161999830857 7.999999999999999
    vertex -6.664962464170109 -1.272161999830852 7.999999999999999
  endloop
endfacet
facet normal 0.0 0.0 1.0
  outer loop
    vertex -6.664962464170109 32.62783800016914 7.999999999999999
    vertex -6.664962464170109 -1.272161999830852 7.999999999999999
    vertex -6.664962464170109 3.627838000169139 7.999999999999999
  endloop
endfacet
facet normal 0.0 0.0 1.0
  outer loop
    vertex -6.664962464170109 32.62783800016914 7.999999999999999
    vertex -6.664962464170109 3.627838000169139 7.999999999999999
    vertex -6.664962464170109 13.227838000169143 7.999999999999999
  endloop
endfacet
facet normal 0.0 0.0 1.0
  outer loop
    vertex -6.664962464170109 32.62783800016914 7.999999999999999
    vertex -6.664962464170109 13.227838000169143 7.999999999999999
    vertex -6.664962464170109 18.127838000169135 7.999999999999999
  endloop
endfacet
facet normal 0.0 0.0 1.0
  outer loop
    vertex -6.664962464170109 32.62783800016914 7.999999999999999
    vertex -6.664962464170109 18.127838000169135 7.999999999999999
    vertex -6.664962464170109 27.72783800016914 7.999999999999999
  endloop
endfacet
facet normal 0.0 0.0 1.0
  outer loop
    vertex 6.735037535829911 33.62783800016914 7.999999999999999
    vertex -6.664962464170109 32.62783800016914 7.999999999999999
    vertex 5.735037535829913 32.62783800016914 7.999999999999999
  endloop
endfacet
facet normal 0.0 0.0 1.0
  outer loop
    vertex 6.735037535829911 33.62783800016914 7.999999999999999
    vertex 5.735037535829913 32.62783800016914 7.999999999999999
    vertex 6.735037535829911 -31.272161999830846 7.999999999999999
  endloop
endfacet
facet normal 0.0 0.0 1.0
  outer loop
    vertex 6.735037535829911 33.62783800016914 7.999999999999999
    vertex 6.735037535829911 -31.272161999830846 7.999999999999999
    vertex 6.735037535829911 -15.68726401658732 7.999999999999999
  endloop
endfacet
facet normal 0.0 0.0 1.0
  outer loop
    vertex 6.735037535829911 33.62783800016914 7.999999999999999
    vertex 6.735037535829911 -15.68726401658732 7.999999999999999
    vertex 6.735037535829911 0.6732095197956685 7.999999999999999
  endloop
endfacet
facet normal 0.0 0.0 1.0
  outer loop
    vertex 6.735037535829911 33.62783800016914 7.999999999999999
    vertex 6.735037535829911 0.6732095197956685 7.999999999999999
    vertex 6.735037535829911 16.204913726805884 7.999999999999999
  endloop
endfacet
facet normal 0.0 0.0 1.0
  outer loop
    vertex 5.735037535829913 18.127838000169135 7.999999999999999
    vertex -6.664962464170109 27.72783800016914 7.999999999999999
    vertex -6.664962464170109 18.127838000169135 7.999999999999999
  endloop
endfacet
facet normal 0.0 0.0 1.0
  outer loop
    vertex -6.664962464170109 27.72783800016914 7.999999999999999
    vertex 5.735037535829913 18.127838000169135 7.999999999999999
    vertex 5.735037535829913 27.72783800016914 7.999999999999999
  endloop
endfacet
facet normal 0.0 0.0 1.0
  outer loop
    vertex 5.735037535829913 3.627838000169139 7.999999999999999
    vertex -6.664962464170109 13.227838000169143 7.999999999999999
    vertex -6.664962464170109 3.627838000169139 7.999999999999999
  endloop
endfacet
facet normal 0.0 0.0 1.0
  outer loop
    vertex -6.664962464170109 13.227838000169143 7.999999999999999
    vertex 5.735037535829913 3.627838000169139 7.999999999999999
    vertex 5.735037535829913 13.227838000169143 7.999999999999999
  endloop
endfacet
facet normal 0.0 0.0 1.0
  outer loop
    vertex 5.735037535829913 -10.872161999830857 7.999999999999999
    vertex -6.664962464170109 -1.272161999830852 7.999999999999999
    vertex -6.664962464170109 -10.872161999830857 7.999999999999999
  endloop
endfacet
facet normal 0.0 0.0 1.0
  outer loop
    vertex -6.664962464170109 -1.272161999830852 7.999999999999999
    vertex 5.735037535829913 -10.872161999830857 7.999999999999999
    vertex 5.735037535829913 -1.2721619998308633 7.999999999999999
  endloop
endfacet
facet normal 0.0 0.0 1.0
  outer loop
    vertex 5.735037535829913 -25.372161999830855 7.999999999999999
    vertex -6.664962464170109 -15.772161999830848 7.999999999999999
    vertex -6.664962464170109 -25.372161999830855 7.999999999999999
  endloop
endfacet
facet normal 0.0 0.0 1.0
  outer loop
    vertex -6.664962464170109 -15.772161999830848 7.999999999999999
    vertex 5.735037535829913 -25.372161999830855 7.999999999999999
    vertex 5.735037535829913 -15.772161999830848 7.999999999999999
  endloop
endfacet
facet normal 0.8574929257125441 0.0 0.5144957554275267
  outer loop
    vertex 6.735037535829911 -15.68726401658732 7.999999999999999
    vertex 6.735037535829911 -31.272161999830846 7.999999999999999
    vertex 10.335037535829905 -17.14716199983085 1.9999999999999998
  endloop
endfacet
facet normal -0.1836149907889001 -0.9225739988123357 0.3393269100336847
  outer loop
    vertex -7.664962464170107 -31.272161999830846 7.999999999999999
    vertex -11.2649624641701 -32.76250043895019 1.9999999999999998
    vertex -0.6649624641700748 -34.872161999830844 1.9999999999999998
  endloop
endfacet
facet normal 0.0 1.0 0.0
  outer loop
    vertex -6.664962464170109 -30.27216199983085 1.9999999999999998
    vertex 5.735037535829913 -30.27216199983085 0.9999999999999999
    vertex -6.664962464170109 -30.27216199983085 0.9999999999999999
  endloop
endfacet
facet normal 0.0 1.0 0.0
  outer loop
    vertex 5.735037535829913 -30.27216199983085 0.9999999999999999
    vertex -6.664962464170109 -30.27216199983085 1.9999999999999998
    vertex 5.735037535829913 -30.27216199983085 1.9999999999999998
  endloop
endfacet
facet normal 0.0 1.0 0.0
  outer loop
    vertex -6.664962464170109 27.72783800016914 1.9999999999999998
    vertex 5.735037535829913 27.72783800016914 0.9999999999999999
    vertex -6.664962464170109 27.72783800016914 0.9999999999999999
  endloop
endfacet
facet normal 0.0 1.0 0.0
  outer loop
    vertex 5.735037535829913 27.72783800016914 0.9999999999999999
    vertex -6.664962464170109 27.72783800016914 1.9999999999999998
    vertex 5.735037535829913 27.72783800016914 1.9999999999999998
  endloop
endfacet
facet normal 1.0 0.0 0.0
  outer loop
    vertex -6.664962464170109 18.127838000169135 0.9999999999999999
    vertex -6.664962464170109 13.227838000169143 1.9999999999999998
    vertex -6.664962464170109 13.227838000169143 0.9999999999999999
  endloop
endfacet
facet normal 1.0 0.0 0.0
  outer loop
    vertex -6.664962464170109 13.227838000169143 1.9999999999999998
    vertex -6.664962464170109 18.127838000169135 0.9999999999999999
    vertex -6.664962464170109 18.127838000169135 1.9999999999999998
  endloop
endfacet
facet normal 0.0 1.0 0.0
  outer loop
    vertex -6.664962464170109 13.227838000169143 1.9999999999999998
    vertex 5.735037535829913 13.227838000169143 0.9999999999999999
    vertex -6.664962464170109 13.227838000169143 0.9999999999999999
  endloop
endfacet
facet normal 0.0 1.0 0.0
  outer loop
    vertex 5.735037535829913 13.227838000169143 0.9999999999999999
    vertex -6.664962464170109 13.227838000169143 1.9999999999999998
    vertex 5.735037535829913 13.227838000169143 1.9999999999999998
  endloop
endfacet
facet normal 1.0 0.0 0.0
  outer loop
    vertex -6.664962464170109 -25.372161999830855 0.9999999999999999
    vertex -6.664962464170109 -30.27216199983085 1.9999999999999998
    vertex -6.664962464170109 -30.27216199983085 0.9999999999999999
  endloop
endfacet
facet normal 1.0 0.0 0.0
  outer loop
    vertex -6.664962464170109 -30.27216199983085 1.9999999999999998
    vertex -6.664962464170109 -25.372161999830855 0.9999999999999999
    vertex -6.664962464170109 -25.372161999830855 1.9999999999999998
  endloop
endfacet
facet normal -1.0 0.0 0.0
  outer loop
    vertex 5.735037535829913 -25.372161999830855 1.9999999999999998
    vertex 5.735037535829913 -30.27216199983085 0.9999999999999999
    vertex 5.735037535829913 -30.27216199983085 1.9999999999999998
  endloop
endfacet
facet normal -1.0 0.0 0.0
  outer loop
    vertex 5.735037535829913 -30.27216199983085 0.9999999999999999
    vertex 5.735037535829913 -25.372161999830855 1.9999999999999998
    vertex 5.735037535829913 -25.372161999830855 0.9999999999999999
  endloop
endfacet
facet normal -1.0 -0.0 -0.0
  outer loop
    vertex 5.735037535829913 3.627838000169139 7.999999999999999
    vertex 5.735037535829913 -1.2721619998308633 1.9999999999999998
    vertex 5.735037535829913 -1.2721619998308633 7.999999999999999
  endloop
endfacet
facet normal -1.0 -0.0 -0.0
  outer loop
    vertex 5.735037535829913 -1.2721619998308633 1.9999999999999998
    vertex 5.735037535829913 3.627838000169139 7.999999999999999
    vertex 5.735037535829913 3.627838000169139 1.9999999999999998
  endloop
endfacet
facet normal 1.0 0.0 0.0
  outer loop
    vertex -6.664962464170109 3.627838000169139 1.9999999999999998
    vertex -6.664962464170109 -1.272161999830852 7.999999999999999
    vertex -6.664962464170109 -1.272161999830852 1.9999999999999998
  endloop
endfacet
facet normal 1.0 0.0 0.0
  outer loop
    vertex -6.664962464170109 -1.272161999830852 7.999999999999999
    vertex -6.664962464170109 3.627838000169139 1.9999999999999998
    vertex -6.664962464170109 3.627838000169139 7.999999999999999
  endloop
endfacet
facet normal 9.096666072735155e-16 1.0 -1.6954361172086038e-46
  outer loop
    vertex -6.664962464170109 -1.272161999830852 1.9999999999999998
    vertex 5.735037535829913 -1.2721619998308633 0.9999999999999999
    vertex -6.664962464170109 -1.272161999830852 0.9999999999999999
  endloop
endfacet
facet normal 9.096666072735155e-16 1.0 -1.6954361172086038e-46
  outer loop
    vertex 5.735037535829913 -1.2721619998308633 0.9999999999999999
    vertex -6.664962464170109 -1.272161999830852 1.9999999999999998
    vertex 5.735037535829913 -1.2721619998308633 1.9999999999999998
  endloop
endfacet
facet normal 1.0 0.0 0.0
  outer loop
    vertex -6.664962464170109 -10.872161999830857 0.9999999999999999
    vertex -6.664962464170109 -15.772161999830848 1.9999999999999998
    vertex -6.664962464170109 -15.772161999830848 0.9999999999999999
  endloop
endfacet
facet normal 1.0 0.0 0.0
  outer loop
    vertex -6.664962464170109 -15.772161999830848 1.9999999999999998
    vertex -6.664962464170109 -10.872161999830857 0.9999999999999999
    vertex -6.664962464170109 -10.872161999830857 1.9999999999999998
  endloop
endfacet
facet normal 0.0 -1.0 0.0
  outer loop
    vertex 5.735037535829913 3.627838000169139 7.999999999999999
    vertex -6.664962464170109 3.627838000169139 1.9999999999999998
    vertex 5.735037535829913 3.627838000169139 1.9999999999999998
  endloop
endfacet
facet normal 0.0 -1.0 0.0
  outer loop
    vertex -6.664962464170109 3.627838000169139 1.9999999999999998
    vertex 5.735037535829913 3.627838000169139 7.999999999999999
    vertex -6.664962464170109 3.627838000169139 7.999999999999999
  endloop
endfacet
facet normal 0.0 -1.0 0.0
  outer loop
    vertex 5.735037535829913 18.127838000169135 7.999999999999999
    vertex -6.664962464170109 18.127838000169135 1.9999999999999998
    vertex 5.735037535829913 18.127838000169135 1.9999999999999998
  endloop
endfacet
facet normal 0.0 -1.0 0.0
  outer loop
    vertex -6.664962464170109 18.127838000169135 1.9999999999999998
    vertex 5.735037535829913 18.127838000169135 7.999999999999999
    vertex -6.664962464170109 18.127838000169135 7.999999999999999
  endloop
endfacet
facet normal 0.0 1.0 0.0
  outer loop
    vertex -6.664962464170109 -15.772161999830848 1.9999999999999998
    vertex 5.735037535829913 -15.772161999830848 0.9999999999999999
    vertex -6.664962464170109 -15.772161999830848 0.9999999999999999
  endloop
endfacet
facet normal 0.0 1.0 0.0
  outer loop
    vertex 5.735037535829913 -15.772161999830848 0.9999999999999999
    vertex -6.664962464170109 -15.772161999830848 1.9999999999999998
    vertex 5.735037535829913 -15.772161999830848 1.9999999999999998
  endloop
endfacet
facet normal -3.1102797361282345e-17 0.8574929257125438 0.5144957554275272
  outer loop
    vertex 6.735037535829911 33.62783800016914 7.999999999999999
    vertex -11.2649624641701 37.22783800016914 1.9999999999999998
    vertex -7.664962464170107 33.62783800016914 7.999999999999999
  endloop
endfacet
facet normal 1.0 0.0 0.0
  outer loop
    vertex -6.664962464170109 18.127838000169135 1.9999999999999998
    vertex -6.664962464170109 13.227838000169143 7.999999999999999
    vertex -6.664962464170109 13.227838000169143 1.9999999999999998
  endloop
endfacet
facet normal 1.0 0.0 0.0
  outer loop
    vertex -6.664962464170109 13.227838000169143 7.999999999999999
    vertex -6.664962464170109 18.127838000169135 1.9999999999999998
    vertex -6.664962464170109 18.127838000169135 7.999999999999999
  endloop
endfacet
facet normal 0.8574929257125447 6.6482530232839354e-18 0.5144957554275259
  outer loop
    vertex 10.335037535829905 19.10283800016915 1.9999999999999998
    vertex 6.735037535829911 33.62783800016914 7.999999999999999
    vertex 6.735037535829911 16.204913726805884 7.999999999999999
  endloop
endfacet
facet normal 0.8574929257125447 6.6482530232839354e-18 0.5144957554275259
  outer loop
    vertex 6.735037535829911 33.62783800016914 7.999999999999999
    vertex 10.335037535829905 19.10283800016915 1.9999999999999998
    vertex 10.335037535829905 37.62783800016914 1.9999999999999998
  endloop
endfacet
facet normal -0.015485443247068315 0.8362139353416914 0.5481846909462205
  outer loop
    vertex 6.735037535829911 33.62783800016914 7.999999999999999
    vertex 10.335037535829905 37.62783800016914 1.9999999999999998
    vertex -11.2649624641701 37.22783800016914 1.9999999999999998
  endloop
endfacet
facet normal 9.096666072735151e-16 1.0 0.0
  outer loop
    vertex -6.664962464170109 -1.272161999830852 7.999999999999999
    vertex 5.735037535829913 -1.2721619998308633 1.9999999999999998
    vertex -6.664962464170109 -1.272161999830852 1.9999999999999998
  endloop
endfacet
facet normal 9.096666072735151e-16 1.0 0.0
  outer loop
    vertex 5.735037535829913 -1.2721619998308633 1.9999999999999998
    vertex -6.664962464170109 -1.272161999830852 7.999999999999999
    vertex 5.735037535829913 -1.2721619998308633 7.999999999999999
  endloop
endfacet
facet normal -1.0 0.0 0.0
  outer loop
    vertex 5.735037535829913 32.62783800016914 7.999999999999999
    vertex 5.735037535829913 27.72783800016914 1.9999999999999998
    vertex 5.735037535829913 27.72783800016914 7.999999999999999
  endloop
endfacet
facet normal -1.0 0.0 0.0
  outer loop
    vertex 5.735037535829913 27.72783800016914 1.9999999999999998
    vertex 5.735037535829913 32.62783800016914 7.999999999999999
    vertex 5.735037535829913 32.62783800016914 1.9999999999999998
  endloop
endfacet
facet normal 0.0 1.0 0.0
  outer loop
    vertex -6.664962464170109 27.72783800016914 7.999999999999999
    vertex 5.735037535829913 27.72783800016914 1.9999999999999998
    vertex -6.664962464170109 27.72783800016914 1.9999999999999998
  endloop
endfacet
facet normal 0.0 1.0 0.0
  outer loop
    vertex 5.735037535829913 27.72783800016914 1.9999999999999998
    vertex -6.664962464170109 27.72783800016914 7.999999999999999
    vertex 5.735037535829913 27.72783800016914 7.999999999999999
  endloop
endfacet
facet normal 1.0 0.0 0.0
  outer loop
    vertex -6.664962464170109 32.62783800016914 1.9999999999999998
    vertex -6.664962464170109 27.72783800016914 7.999999999999999
    vertex -6.664962464170109 27.72783800016914 1.9999999999999998
  endloop
endfacet
facet normal 1.0 0.0 0.0
  outer loop
    vertex -6.664962464170109 27.72783800016914 7.999999999999999
    vertex -6.664962464170109 32.62783800016914 1.9999999999999998
    vertex -6.664962464170109 32.62783800016914 7.999999999999999
  endloop
endfacet
facet normal 0.0 1.0 0.0
  outer loop
    vertex -6.664962464170109 13.227838000169143 7.999999999999999
    vertex 5.735037535829913 13.227838000169143 1.9999999999999998
    vertex -6.664962464170109 13.227838000169143 1.9999999999999998
  endloop
endfacet
facet normal 0.0 1.0 0.0
  outer loop
    vertex 5.735037535829913 13.227838000169143 1.9999999999999998
    vertex -6.664962464170109 13.227838000169143 7.999999999999999
    vertex 5.735037535829913 13.227838000169143 7.999999999999999
  endloop
endfacet
facet normal 0.0 -1.0 0.0
  outer loop
    vertex 5.735037535829913 32.62783800016914 7.999999999999999
    vertex -6.664962464170109 32.62783800016914 1.9999999999999998
    vertex 5.735037535829913 32.62783800016914 1.9999999999999998
  endloop
endfacet
facet normal 0.0 -1.0 0.0
  outer loop
    vertex -6.664962464170109 32.62783800016914 1.9999999999999998
    vertex 5.735037535829913 32.62783800016914 7.999999999999999
    vertex -6.664962464170109 32.62783800016914 7.999999999999999
  endloop
endfacet
facet normal -1.0 0.0 0.0
  outer loop
    vertex 5.735037535829913 18.127838000169135 7.999999999999999
    vertex 5.735037535829913 13.227838000169143 1.9999999999999998
    vertex 5.735037535829913 13.227838000169143 7.999999999999999
  endloop
endfacet
facet normal -1.0 0.0 0.0
  outer loop
    vertex 5.735037535829913 13.227838000169143 1.9999999999999998
    vertex 5.735037535829913 18.127838000169135 7.999999999999999
    vertex 5.735037535829913 18.127838000169135 1.9999999999999998
  endloop
endfacet
facet normal 0.0 -1.0 0.0
  outer loop
    vertex 5.735037535829913 32.62783800016914 1.9999999999999998
    vertex -6.664962464170109 32.62783800016914 0.9999999999999999
    vertex 5.735037535829913 32.62783800016914 0.9999999999999999
  endloop
endfacet
facet normal 0.0 -1.0 0.0
  outer loop
    vertex -6.664962464170109 32.62783800016914 0.9999999999999999
    vertex 5.735037535829913 32.62783800016914 1.9999999999999998
    vertex -6.664962464170109 32.62783800016914 1.9999999999999998
  endloop
endfacet
facet normal -1.0 0.0 0.0
  outer loop
    vertex 5.735037535829913 32.62783800016914 1.9999999999999998
    vertex 5.735037535829913 27.72783800016914 0.9999999999999999
    vertex 5.735037535829913 27.72783800016914 1.9999999999999998
  endloop
endfacet
facet normal -1.0 0.0 0.0
  outer loop
    vertex 5.735037535829913 27.72783800016914 0.9999999999999999
    vertex 5.735037535829913 32.62783800016914 1.9999999999999998
    vertex 5.735037535829913 32.62783800016914 0.9999999999999999
  endloop
endfacet
facet normal 0.857492925712544 -2.673537087153563e-17 0.5144957554275267
  outer loop
    vertex 6.735037535829911 16.204913726805884 7.999999999999999
    vertex 6.735037535829911 0.6732095197956685 7.999999999999999
    vertex 10.335037535829905 1.377838000169143 1.9999999999999998
  endloop
endfacet
facet normal 0.8574929257125441 -1.7597266239498334e-18 0.5144957554275267
  outer loop
    vertex 10.335037535829905 1.377838000169143 1.9999999999999998
    vertex 6.735037535829911 -15.68726401658732 7.999999999999999
    vertex 10.335037535829905 -17.14716199983085 1.9999999999999998
  endloop
endfacet
facet normal 0.8574929257125441 -1.7597266239498334e-18 0.5144957554275267
  outer loop
    vertex 6.735037535829911 -15.68726401658732 7.999999999999999
    vertex 10.335037535829905 1.377838000169143 1.9999999999999998
    vertex 6.735037535829911 0.6732095197956685 7.999999999999999
  endloop
endfacet
facet normal 1.0 0.0 0.0
  outer loop
    vertex -6.664962464170109 3.627838000169139 0.9999999999999999
    vertex -6.664962464170109 -1.272161999830852 1.9999999999999998
    vertex -6.664962464170109 -1.272161999830852 0.9999999999999999
  endloop
endfacet
facet normal 1.0 0.0 0.0
  outer loop
    vertex -6.664962464170109 -1.272161999830852 1.9999999999999998
    vertex -6.664962464170109 3.627838000169139 0.9999999999999999
    vertex -6.664962464170109 3.627838000169139 1.9999999999999998
  endloop
endfacet
facet normal 0.0 0.0 1.0
  outer loop
    vertex 5.735037535829913 -30.27216199983085 0.9999999999999999
    vertex -6.664962464170109 -25.372161999830855 0.9999999999999999
    vertex -6.664962464170109 -30.27216199983085 0.9999999999999999
  endloop
endfacet
facet normal 0.0 0.0 1.0
  outer loop
    vertex -6.664962464170109 -25.372161999830855 0.9999999999999999
    vertex 5.735037535829913 -30.27216199983085 0.9999999999999999
    vertex 5.735037535829913 -25.372161999830855 0.9999999999999999
  endloop
endfacet
facet normal 0.0 0.0 1.0
  outer loop
    vertex 5.735037535829913 27.72783800016914 0.9999999999999999
    vertex -6.664962464170109 32.62783800016914 0.9999999999999999
    vertex -6.664962464170109 27.72783800016914 0.9999999999999999
  endloop
endfacet
facet normal 0.0 0.0 1.0
  outer loop
    vertex -6.664962464170109 32.62783800016914 0.9999999999999999
    vertex 5.735037535829913 27.72783800016914 0.9999999999999999
    vertex 5.735037535829913 32.62783800016914 0.9999999999999999
  endloop
endfacet
facet normal 0.0 0.0 1.0
  outer loop
    vertex 5.735037535829913 13.227838000169143 0.9999999999999999
    vertex -6.664962464170109 18.127838000169135 0.9999999999999999
    vertex -6.664962464170109 13.227838000169143 0.9999999999999999
  endloop
endfacet
facet normal 0.0 0.0 1.0
  outer loop
    vertex -6.664962464170109 18.127838000169135 0.9999999999999999
    vertex 5.735037535829913 13.227838000169143 0.9999999999999999
    vertex 5.735037535829913 18.127838000169135 0.9999999999999999
  endloop
endfacet
facet normal 0.0 0.0 1.0
  outer loop
    vertex 5.735037535829913 -1.2721619998308633 0.9999999999999999
    vertex -6.664962464170109 3.627838000169139 0.9999999999999999
    vertex -6.664962464170109 -1.272161999830852 0.9999999999999999
  endloop
endfacet
facet normal 0.0 0.0 1.0
  outer loop
    vertex -6.664962464170109 3.627838000169139 0.9999999999999999
    vertex 5.735037535829913 -1.2721619998308633 0.9999999999999999
    vertex 5.735037535829913 3.627838000169139 0.9999999999999999
  endloop
endfacet
facet normal 0.0 0.0 1.0
  outer loop
    vertex 5.735037535829913 -15.772161999830848 0.9999999999999999
    vertex -6.664962464170109 -10.872161999830857 0.9999999999999999
    vertex -6.664962464170109 -15.772161999830848 0.9999999999999999
  endloop
endfacet
facet normal 0.0 0.0 1.0
  outer loop
    vertex -6.664962464170109 -10.872161999830857 0.9999999999999999
    vertex 5.735037535829913 -15.772161999830848 0.9999999999999999
    vertex 5.735037535829913 -10.872161999830857 0.9999999999999999
  endloop
endfacet
facet normal -1.0 -0.0 -0.0
  outer loop
    vertex -0.9649624641700968 42.927838000169146 1.9999999999999998
    vertex -0.9649624641700968 41.927838000169146 0.0
    vertex -0.9649624641700968 41.927838000169146 1.9999999999999998
  endloop
endfacet
facet normal -1.0 -0.0 -0.0
  outer loop
    vertex -0.9649624641700968 41.927838000169146 0.0
    vertex -0.9649624641700968 42.927838000169146 1.9999999999999998
    vertex -0.9649624641700968 42.927838000169146 0.0
  endloop
endfacet
facet normal -1.0 -0.0 -0.0
  outer loop
    vertex -2.4649624641700716 44.427838000169146 1.9999999999999998
    vertex -2.4649624641700716 42.927838000169146 0.0
    vertex -2.4649624641700716 42.927838000169146 1.9999999999999998
  endloop
endfacet
facet normal -1.0 -0.0 -0.0
  outer loop
    vertex -2.4649624641700716 42.927838000169146 0.0
    vertex -2.4649624641700716 44.427838000169146 1.9999999999999998
    vertex -2.4649624641700716 44.427838000169146 0.0
  endloop
endfacet
facet normal -1.0 -0.0 -0.0
  outer loop
    vertex -2.4649624641700716 41.927838000169146 1.9999999999999998
    vertex -2.4649624641700716 40.42783800016915 0.0
    vertex -2.4649624641700716 40.42783800016915 1.9999999999999998
  endloop
endfacet
facet normal -1.0 -0.0 -0.0
  outer loop
    vertex -2.4649624641700716 40.42783800016915 0.0
    vertex -2.4649624641700716 41.927838000169146 1.9999999999999998
    vertex -2.4649624641700716 41.927838000169146 0.0
  endloop
endfacet
facet normal -1.0 -0.0 -0.0
  outer loop
    vertex 3.5350375358299173 42.927838000169146 1.9999999999999998
    vertex 3.5350375358299173 41.927838000169146 0.0
    vertex 3.5350375358299173 41.927838000169146 1.9999999999999998
  endloop
endfacet
facet normal -1.0 -0.0 -0.0
  outer loop
    vertex 3.5350375358299173 41.927838000169146 0.0
    vertex 3.5350375358299173 42.927838000169146 1.9999999999999998
    vertex 3.5350375358299173 42.927838000169146 0.0
  endloop
endfacet
facet normal 0.0 1.0 0.0
  outer loop
    vertex 0.5350375358298779 41.927838000169146 1.9999999999999998
    vertex 3.5350375358299173 41.927838000169146 0.0
    vertex 0.5350375358298779 41.927838000169146 0.0
  endloop
endfacet
facet normal 0.0 1.0 0.0
  outer loop
    vertex 3.5350375358299173 41.927838000169146 0.0
    vertex 0.5350375358298779 41.927838000169146 1.9999999999999998
    vertex 3.5350375358299173 41.927838000169146 1.9999999999999998
  endloop
endfacet
facet normal 0.0 1.0 0.0
  outer loop
    vertex -4.96496246417009 41.927838000169146 1.9999999999999998
    vertex -3.4649624641701147 41.927838000169146 0.0
    vertex -4.96496246417009 41.927838000169146 0.0
  endloop
endfacet
facet normal 0.0 1.0 0.0
  outer loop
    vertex -3.4649624641701147 41.927838000169146 0.0
    vertex -4.96496246417009 41.927838000169146 1.9999999999999998
    vertex -3.4649624641701147 41.927838000169146 1.9999999999999998
  endloop
endfacet
facet normal 1.0 0.0 0.0
  outer loop
    vertex -4.96496246417009 42.927838000169146 0.0
    vertex -4.96496246417009 41.927838000169146 1.9999999999999998
    vertex -4.96496246417009 41.927838000169146 0.0
  endloop
endfacet
facet normal 1.0 0.0 0.0
  outer loop
    vertex -4.96496246417009 41.927838000169146 1.9999999999999998
    vertex -4.96496246417009 42.927838000169146 0.0
    vertex -4.96496246417009 42.927838000169146 1.9999999999999998
  endloop
endfacet
facet normal 1.0 0.0 0.0
  outer loop
    vertex -3.4649624641701147 41.927838000169146 0.0
    vertex -3.4649624641701147 40.42783800016915 1.9999999999999998
    vertex -3.4649624641701147 40.42783800016915 0.0
  endloop
endfacet
facet normal 1.0 0.0 0.0
  outer loop
    vertex -3.4649624641701147 40.42783800016915 1.9999999999999998
    vertex -3.4649624641701147 41.927838000169146 0.0
    vertex -3.4649624641701147 41.927838000169146 1.9999999999999998
  endloop
endfacet
facet normal 1.0 0.0 0.0
  outer loop
    vertex 0.5350375358298779 42.927838000169146 0.0
    vertex 0.5350375358298779 41.927838000169146 1.9999999999999998
    vertex 0.5350375358298779 41.927838000169146 0.0
  endloop
endfacet
facet normal 1.0 0.0 0.0
  outer loop
    vertex 0.5350375358298779 41.927838000169146 1.9999999999999998
    vertex 0.5350375358298779 42.927838000169146 0.0
    vertex 0.5350375358298779 42.927838000169146 1.9999999999999998
  endloop
endfacet
facet normal 0.0 -1.0 0.0
  outer loop
    vertex 3.5350375358299173 42.927838000169146 1.9999999999999998
    vertex 0.5350375358298779 42.927838000169146 0.0
    vertex 3.5350375358299173 42.927838000169146 0.0
  endloop
endfacet
facet normal 0.0 -1.0 0.0
  outer loop
    vertex 0.5350375358298779 42.927838000169146 0.0
    vertex 3.5350375358299173 42.927838000169146 1.9999999999999998
    vertex 0.5350375358298779 42.927838000169146 1.9999999999999998
  endloop
endfacet
facet normal 0.0 1.0 0.0
  outer loop
    vertex -3.4649624641701147 40.42783800016915 1.9999999999999998
    vertex -2.4649624641700716 40.42783800016915 0.0
    vertex -3.4649624641701147 40.42783800016915 0.0
  endloop
endfacet
facet normal 0.0 1.0 0.0
  outer loop
    vertex -2.4649624641700716 40.42783800016915 0.0
    vertex -3.4649624641701147 40.42783800016915 1.9999999999999998
    vertex -2.4649624641700716 40.42783800016915 1.9999999999999998
  endloop
endfacet
facet normal 0.0 -1.0 0.0
  outer loop
    vertex -0.9649624641700968 42.927838000169146 1.9999999999999998
    vertex -2.4649624641700716 42.927838000169146 0.0
    vertex -0.9649624641700968 42.927838000169146 0.0
  endloop
endfacet
facet normal 0.0 -1.0 0.0
  outer loop
    vertex -2.4649624641700716 42.927838000169146 0.0
    vertex -0.9649624641700968 42.927838000169146 1.9999999999999998
    vertex -2.4649624641700716 42.927838000169146 1.9999999999999998
  endloop
endfacet
facet normal 0.0 -1.0 0.0
  outer loop
    vertex -2.4649624641700716 44.427838000169146 1.9999999999999998
    vertex -3.4649624641701147 44.427838000169146 0.0
    vertex -2.4649624641700716 44.427838000169146 0.0
  endloop
endfacet
facet normal 0.0 -1.0 0.0
  outer loop
    vertex -3.4649624641701147 44.427838000169146 0.0
    vertex -2.4649624641700716 44.427838000169146 1.9999999999999998
    vertex -3.4649624641701147 44.427838000169146 1.9999999999999998
  endloop
endfacet
facet normal 1.0 0.0 0.0
  outer loop
    vertex -3.4649624641701147 44.427838000169146 0.0
    vertex -3.4649624641701147 42.927838000169146 1.9999999999999998
    vertex -3.4649624641701147 42.927838000169146 0.0
  endloop
endfacet
facet normal 1.0 0.0 0.0
  outer loop
    vertex -3.4649624641701147 42.927838000169146 1.9999999999999998
    vertex -3.4649624641701147 44.427838000169146 0.0
    vertex -3.4649624641701147 44.427838000169146 1.9999999999999998
  endloop
endfacet
facet normal 0.0 1.0 0.0
  outer loop
    vertex -2.4649624641700716 41.927838000169146 1.9999999999999998
    vertex -0.9649624641700968 41.927838000169146 0.0
    vertex -2.4649624641700716 41.927838000169146 0.0
  endloop
endfacet
facet normal 0.0 1.0 0.0
  outer loop
    vertex -0.9649624641700968 41.927838000169146 0.0
    vertex -2.4649624641700716 41.927838000169146 1.9999999999999998
    vertex -0.9649624641700968 41.927838000169146 1.9999999999999998
  endloop
endfacet
facet normal 0.0 -1.0 0.0
  outer loop
    vertex -3.4649624641701147 42.927838000169146 1.9999999999999998
    vertex -4.96496246417009 42.927838000169146 0.0
    vertex -3.4649624641701147 42.927838000169146 0.0
  endloop
endfacet
facet normal 0.0 -1.0 0.0
  outer loop
    vertex -4.96496246417009 42.927838000169146 0.0
    vertex -3.4649624641701147 42.927838000169146 1.9999999999999998
    vertex -4.96496246417009 42.927838000169146 1.9999999999999998
  endloop
endfacet
endsolid Untitled-551f0e99
