solid Untitled-551f0ebb
facet normal 0.0 0.0 1.0
  outer loop
    vertex 15.731683810294617 -40.67242707718753 1.9999999999999998
    vertex 11.131683810294604 -35.67242707718753 1.9999999999999998
    vertex 11.131683810294604 -40.67242707718753 1.9999999999999998
  endloop
endfacet
facet normal 0.0 0.0 1.0
  outer loop
    vertex 11.131683810294604 -35.67242707718753 1.9999999999999998
    vertex 15.731683810294617 -17.947427077187534 1.9999999999999998
    vertex 10.731683810294603 -17.947427077187534 1.9999999999999998
  endloop
endfacet
facet normal 0.0 0.0 1.0
  outer loop
    vertex 15.731683810294617 -17.947427077187534 1.9999999999999998
    vertex 11.131683810294604 -35.67242707718753 1.9999999999999998
    vertex 15.731683810294617 -40.67242707718753 1.9999999999999998
  endloop
endfacet
facet normal -1.0 0.0 0.0
  outer loop
    vertex 6.1316838102946125 2.827572922812452 1.9999999999999998
    vertex 6.1316838102946125 -2.072427077187539 0.9999999999999999
    vertex 6.1316838102946125 -2.072427077187539 1.9999999999999998
  endloop
endfacet
facet normal -1.0 0.0 0.0
  outer loop
    vertex 6.1316838102946125 -2.072427077187539 0.9999999999999999
    vertex 6.1316838102946125 2.827572922812452 1.9999999999999998
    vertex 6.1316838102946125 2.827572922812452 0.9999999999999999
  endloop
endfacet
facet normal 0.0 0.0 1.0
  outer loop
    vertex -10.868316189705391 18.70257292281248 1.9999999999999998
    vertex -15.868316189705393 36.427572922812466 1.9999999999999998
    vertex -15.868316189705393 18.70257292281248 1.9999999999999998
  endloop
endfacet
facet normal 0.0 0.0 1.0
  outer loop
    vertex -15.868316189705393 36.427572922812466 1.9999999999999998
    vertex -10.868316189705391 18.70257292281248 1.9999999999999998
    vertex -10.868316189705391 36.427572922812466 1.9999999999999998
  endloop
endfacet
facet normal 0.0 -1.0 0.0
  outer loop
    vertex 6.1316838102946125 17.327572922812454 1.9999999999999998
    vertex -6.268316189705388 17.327572922812454 0.9999999999999999
    vertex 6.1316838102946125 17.327572922812454 0.9999999999999999
  endloop
endfacet
facet normal 0.0 -1.0 0.0
  outer loop
    vertex -6.268316189705388 17.327572922812454 0.9999999999999999
    vertex 6.1316838102946125 17.327572922812454 1.9999999999999998
    vertex -6.268316189705388 17.327572922812454 1.9999999999999998
  endloop
endfacet
facet normal 0.8574929257125441 1.0264125456638308e-17 0.5144957554275267
  outer loop
    vertex 10.731683810294603 18.30257292281248 1.9999999999999998
    vertex 7.131683810294611 15.404648649449204 7.999999999999999
    vertex 10.731683810294603 0.5775729228124675 1.9999999999999998
  endloop
endfacet
facet normal 0.8370960922860247 0.018890743972604172 0.546729615140454
  outer loop
    vertex 10.731683810294603 -17.947427077187534 1.9999999999999998
    vertex 7.131683810294611 -32.07242707718753 7.999999999999999
    vertex 11.131683810294604 -35.67242707718753 1.9999999999999998
  endloop
endfacet
facet normal 0.0 0.0 1.0
  outer loop
    vertex -0.26831618970538723 -40.67242707718753 1.9999999999999998
    vertex -10.868316189705391 -33.56276551630687 1.9999999999999998
    vertex -10.868316189705391 -40.67242707718753 1.9999999999999998
  endloop
endfacet
facet normal 0.0 0.0 1.0
  outer loop
    vertex -10.868316189705391 -33.56276551630687 1.9999999999999998
    vertex -0.26831618970538723 -40.67242707718753 1.9999999999999998
    vertex -0.26831618970538723 -35.67242707718753 1.9999999999999998
  endloop
endfacet
facet normal 1.0 0.0 0.0
  outer loop
    vertex -6.268316189705388 -11.672427077187539 1.9999999999999998
    vertex -6.268316189705388 -16.572427077187523 7.999999999999999
    vertex -6.268316189705388 -16.572427077187523 1.9999999999999998
  endloop
endfacet
facet normal 1.0 0.0 0.0
  outer loop
    vertex -6.268316189705388 -16.572427077187523 7.999999999999999
    vertex -6.268316189705388 -11.672427077187539 1.9999999999999998
    vertex -6.268316189705388 -11.672427077187539 7.999999999999999
  endloop
endfacet
facet normal 0.0 0.0 -1.0
  outer loop
    vertex -10.868316189705391 0.17757292281246823 0.0
    vertex -15.868316189705393 -17.547427077187532 0.0
    vertex -15.868316189705393 0.17757292281246823 0.0
  endloop
endfacet
facet normal 0.0 0.0 -1.0
  outer loop
    vertex -15.868316189705393 -17.547427077187532 0.0
    vertex -10.868316189705391 0.17757292281246823 0.0
    vertex -10.868316189705391 -17.547427077187532 0.0
  endloop
endfacet
facet normal 0.0 0.0 -1.0
  outer loop
    vertex -10.868316189705391 36.427572922812466 0.0
    vertex -15.868316189705393 18.70257292281248 0.0
    vertex -15.868316189705393 36.427572922812466 0.0
  endloop
endfacet
facet normal 0.0 0.0 -1.0
  outer loop
    vertex -15.868316189705393 18.70257292281248 0.0
    vertex -10.868316189705391 36.427572922812466 0.0
    vertex -10.868316189705391 18.70257292281248 0.0
  endloop
endfacet
facet normal 0.0 0.0 -1.0
  outer loop
    vertex 10.731683810294603 51.42757292281248 0.0
    vertex 0.13168381029460077 46.427572922812466 0.0
    vertex 0.13168381029460077 51.42757292281248 0.0
  endloop
endfacet
facet normal 0.0 0.0 -1.0
  outer loop
    vertex 15.731683810294617 46.427572922812466 0.0
    vertex 10.731683810294603 36.827572922812465 0.0
    vertex 10.731683810294603 46.427572922812466 0.0
  endloop
endfacet
facet normal 0.0 0.0 -1.0
  outer loop
    vertex 10.731683810294603 36.827572922812465 0.0
    vertex 15.731683810294617 46.427572922812466 0.0
    vertex 15.731683810294617 36.827572922812465 0.0
  endloop
endfacet
facet normal 0.0 0.0 -1.0
  outer loop
    vertex 15.731683810294617 18.30257292281248 0.0
    vertex 10.731683810294603 0.5775729228124675 0.0
    vertex 10.731683810294603 18.30257292281248 0.0
  endloop
endfacet
facet normal 0.0 0.0 -1.0
  outer loop
    vertex 10.731683810294603 0.5775729228124675 0.0
    vertex 15.731683810294617 18.30257292281248 0.0
    vertex 15.731683810294617 0.5775729228124675 0.0
  endloop
endfacet
facet normal 0.0 0.0 -1.0
  outer loop
    vertex 0.13168381029460077 46.427572922812466 0.0
    vertex -10.868316189705391 36.427572922812466 0.0
    vertex -10.868316189705391 46.427572922812466 0.0
  endloop
endfacet
facet normal 0.0 0.0 -1.0
  outer loop
    vertex -10.868316189705391 36.427572922812466 0.0
    vertex 0.13168381029460077 46.427572922812466 0.0
    vertex -10.868316189705391 18.70257292281248 0.0
  endloop
endfacet
facet normal 0.0 0.0 -1.0
  outer loop
    vertex -10.868316189705391 18.70257292281248 0.0
    vertex 0.13168381029460077 46.427572922812466 0.0
    vertex -10.868316189705391 0.17757292281246823 0.0
  endloop
endfacet
facet normal 0.0 0.0 -1.0
  outer loop
    vertex -10.868316189705391 0.17757292281246823 0.0
    vertex 0.13168381029460077 46.427572922812466 0.0
    vertex -10.868316189705391 -17.547427077187532 0.0
  endloop
endfacet
facet normal 0.0 0.0 -1.0
  outer loop
    vertex -10.868316189705391 -17.547427077187532 0.0
    vertex 0.13168381029460077 46.427572922812466 0.0
    vertex -10.868316189705391 -40.67242707718753 0.0
  endloop
endfacet
facet normal 0.0 0.0 -1.0
  outer loop
    vertex -10.868316189705391 -40.67242707718753 0.0
    vertex 0.13168381029460077 46.427572922812466 0.0
    vertex -0.26831618970538723 -35.67242707718753 0.0
  endloop
endfacet
facet normal 0.0 0.0 -1.0
  outer loop
    vertex -0.26831618970538723 -35.67242707718753 0.0
    vertex 0.13168381029460077 46.427572922812466 0.0
    vertex 11.131683810294604 -35.67242707718753 0.0
  endloop
endfacet
facet normal 0.0 0.0 -1.0
  outer loop
    vertex 11.131683810294604 -35.67242707718753 0.0
    vertex 0.13168381029460077 46.427572922812466 0.0
    vertex 10.731683810294603 -17.947427077187534 0.0
  endloop
endfacet
facet normal 0.0 0.0 -1.0
  outer loop
    vertex 10.731683810294603 -17.947427077187534 0.0
    vertex 0.13168381029460077 46.427572922812466 0.0
    vertex 10.731683810294603 51.42757292281248 0.0
  endloop
endfacet
facet normal 0.0 0.0 -1.0
  outer loop
    vertex 10.731683810294603 -17.947427077187534 0.0
    vertex 10.731683810294603 51.42757292281248 0.0
    vertex 10.731683810294603 46.427572922812466 0.0
  endloop
endfacet
facet normal 0.0 0.0 -1.0
  outer loop
    vertex 10.731683810294603 -17.947427077187534 0.0
    vertex 10.731683810294603 46.427572922812466 0.0
    vertex 10.731683810294603 36.827572922812465 0.0
  endloop
endfacet
facet normal 0.0 0.0 -1.0
  outer loop
    vertex 10.731683810294603 -17.947427077187534 0.0
    vertex 10.731683810294603 36.827572922812465 0.0
    vertex 10.731683810294603 18.30257292281248 0.0
  endloop
endfacet
facet normal 0.0 0.0 -1.0
  outer loop
    vertex 10.731683810294603 -17.947427077187534 0.0
    vertex 10.731683810294603 18.30257292281248 0.0
    vertex 10.731683810294603 0.5775729228124675 0.0
  endloop
endfacet
facet normal 0.0 0.0 -1.0
  outer loop
    vertex 11.131683810294604 -35.67242707718753 0.0
    vertex 10.731683810294603 -17.947427077187534 0.0
    vertex 15.731683810294617 -17.947427077187534 0.0
  endloop
endfacet
facet normal 0.0 0.0 -1.0
  outer loop
    vertex 11.131683810294604 -35.67242707718753 0.0
    vertex 15.731683810294617 -17.947427077187534 0.0
    vertex 11.131683810294604 -40.67242707718753 0.0
  endloop
endfacet
facet normal 0.0 0.0 -1.0
  outer loop
    vertex 11.131683810294604 -40.67242707718753 0.0
    vertex 15.731683810294617 -17.947427077187534 0.0
    vertex 15.731683810294617 -40.67242707718753 0.0
  endloop
endfacet
facet normal 0.0 0.0 -1.0
  outer loop
    vertex -0.26831618970538723 -40.67242707718753 0.0
    vertex -10.868316189705391 -40.67242707718753 0.0
    vertex -0.26831618970538723 -35.67242707718753 0.0
  endloop
endfacet
facet normal -0.8574929257125443 2.0925267401496893e-17 0.5144957554275265
  outer loop
    vertex -7.268316189705397 32.82757292281247 7.999999999999999
    vertex -10.868316189705391 18.70257292281248 1.9999999999999998
    vertex -7.268316189705397 18.70257292281248 7.999999999999999
  endloop
endfacet
facet normal -0.8574929257125443 2.0925267401496893e-17 0.5144957554275265
  outer loop
    vertex -10.868316189705391 18.70257292281248 1.9999999999999998
    vertex -7.268316189705397 32.82757292281247 7.999999999999999
    vertex -10.868316189705391 36.427572922812466 1.9999999999999998
  endloop
endfacet
facet normal -1.0 0.0 0.0
  outer loop
    vertex 6.1316838102946125 -11.672427077187539 1.9999999999999998
    vertex 6.1316838102946125 -16.572427077187523 0.9999999999999999
    vertex 6.1316838102946125 -16.572427077187523 1.9999999999999998
  endloop
endfacet
facet normal -1.0 0.0 0.0
  outer loop
    vertex 6.1316838102946125 -16.572427077187523 0.9999999999999999
    vertex 6.1316838102946125 -11.672427077187539 1.9999999999999998
    vertex 6.1316838102946125 -11.672427077187539 0.9999999999999999
  endloop
endfacet
facet normal 1.0 0.0 0.0
  outer loop
    vertex -6.268316189705388 31.82757292281247 0.9999999999999999
    vertex -6.268316189705388 26.92757292281246 1.9999999999999998
    vertex -6.268316189705388 26.92757292281246 0.9999999999999999
  endloop
endfacet
facet normal 1.0 0.0 0.0
  outer loop
    vertex -6.268316189705388 26.92757292281246 1.9999999999999998
    vertex -6.268316189705388 31.82757292281247 0.9999999999999999
    vertex -6.268316189705388 31.82757292281247 1.9999999999999998
  endloop
endfacet
facet normal 0.0 -1.0 0.0
  outer loop
    vertex 6.1316838102946125 -11.672427077187539 1.9999999999999998
    vertex -6.268316189705388 -11.672427077187539 0.9999999999999999
    vertex 6.1316838102946125 -11.672427077187539 0.9999999999999999
  endloop
endfacet
facet normal 0.0 -1.0 0.0
  outer loop
    vertex -6.268316189705388 -11.672427077187539 0.9999999999999999
    vertex 6.1316838102946125 -11.672427077187539 1.9999999999999998
    vertex -6.268316189705388 -11.672427077187539 1.9999999999999998
  endloop
endfacet
facet normal -1.0 0.0 0.0
  outer loop
    vertex 6.1316838102946125 17.327572922812454 1.9999999999999998
    vertex 6.1316838102946125 12.427572922812463 0.9999999999999999
    vertex 6.1316838102946125 12.427572922812463 1.9999999999999998
  endloop
endfacet
facet normal -1.0 0.0 0.0
  outer loop
    vertex 6.1316838102946125 12.427572922812463 0.9999999999999999
    vertex 6.1316838102946125 17.327572922812454 1.9999999999999998
    vertex 6.1316838102946125 17.327572922812454 0.9999999999999999
  endloop
endfacet
facet normal 0.0 -1.0 0.0
  outer loop
    vertex 6.1316838102946125 2.827572922812452 1.9999999999999998
    vertex -6.268316189705388 2.827572922812452 0.9999999999999999
    vertex 6.1316838102946125 2.827572922812452 0.9999999999999999
  endloop
endfacet
facet normal 0.0 -1.0 0.0
  outer loop
    vertex -6.268316189705388 2.827572922812452 0.9999999999999999
    vertex 6.1316838102946125 2.827572922812452 1.9999999999999998
    vertex -6.268316189705388 2.827572922812452 1.9999999999999998
  endloop
endfacet
facet normal -1.0 -0.0 -0.0
  outer loop
    vertex 6.1316838102946125 -11.672427077187539 7.999999999999999
    vertex 6.1316838102946125 -16.572427077187523 1.9999999999999998
    vertex 6.1316838102946125 -16.572427077187523 7.999999999999999
  endloop
endfacet
facet normal -1.0 -0.0 -0.0
  outer loop
    vertex 6.1316838102946125 -16.572427077187523 1.9999999999999998
    vertex 6.1316838102946125 -11.672427077187539 7.999999999999999
    vertex 6.1316838102946125 -11.672427077187539 1.9999999999999998
  endloop
endfacet
facet normal 0.0 1.0 0.0
  outer loop
    vertex -6.268316189705388 -16.572427077187523 7.999999999999999
    vertex 6.1316838102946125 -16.572427077187523 1.9999999999999998
    vertex -6.268316189705388 -16.572427077187523 1.9999999999999998
  endloop
endfacet
facet normal 0.0 1.0 0.0
  outer loop
    vertex 6.1316838102946125 -16.572427077187523 1.9999999999999998
    vertex -6.268316189705388 -16.572427077187523 7.999999999999999
    vertex 6.1316838102946125 -16.572427077187523 7.999999999999999
  endloop
endfacet
facet normal 0.0 -1.0 0.0
  outer loop
    vertex 6.1316838102946125 -11.672427077187539 7.999999999999999
    vertex -6.268316189705388 -11.672427077187539 1.9999999999999998
    vertex 6.1316838102946125 -11.672427077187539 1.9999999999999998
  endloop
endfacet
facet normal 0.0 -1.0 0.0
  outer loop
    vertex -6.268316189705388 -11.672427077187539 1.9999999999999998
    vertex 6.1316838102946125 -11.672427077187539 7.999999999999999
    vertex -6.268316189705388 -11.672427077187539 7.999999999999999
  endloop
endfacet
facet normal 0.0 0.0 1.0
  outer loop
    vertex -10.868316189705391 -33.56276551630687 1.9999999999999998
    vertex -6.268316189705388 -31.07242707718753 1.9999999999999998
    vertex -10.868316189705391 -17.547427077187532 1.9999999999999998
  endloop
endfacet
facet normal 0.0 0.0 1.0
  outer loop
    vertex -6.268316189705388 -31.07242707718753 1.9999999999999998
    vertex -10.868316189705391 -33.56276551630687 1.9999999999999998
    vertex -0.26831618970538723 -35.67242707718753 1.9999999999999998
  endloop
endfacet
facet normal 0.0 0.0 1.0
  outer loop
    vertex -10.868316189705391 -17.547427077187532 1.9999999999999998
    vertex -6.268316189705388 -31.07242707718753 1.9999999999999998
    vertex -10.868316189705391 0.17757292281246823 1.9999999999999998
  endloop
endfacet
facet normal 0.0 0.0 1.0
  outer loop
    vertex -10.868316189705391 0.17757292281246823 1.9999999999999998
    vertex -6.268316189705388 -31.07242707718753 1.9999999999999998
    vertex -10.868316189705391 18.70257292281248 1.9999999999999998
  endloop
endfacet
facet normal 0.0 0.0 1.0
  outer loop
    vertex -10.868316189705391 18.70257292281248 1.9999999999999998
    vertex -6.268316189705388 -31.07242707718753 1.9999999999999998
    vertex -10.868316189705391 36.427572922812466 1.9999999999999998
  endloop
endfacet
facet normal 0.0 0.0 1.0
  outer loop
    vertex -6.268316189705388 -31.07242707718753 1.9999999999999998
    vertex -0.26831618970538723 -35.67242707718753 1.9999999999999998
    vertex 6.1316838102946125 -31.07242707718753 1.9999999999999998
  endloop
endfacet
facet normal 0.0 0.0 1.0
  outer loop
    vertex 6.1316838102946125 -31.07242707718753 1.9999999999999998
    vertex -0.26831618970538723 -35.67242707718753 1.9999999999999998
    vertex 11.131683810294604 -35.67242707718753 1.9999999999999998
  endloop
endfacet
facet normal 0.0 0.0 1.0
  outer loop
    vertex 6.1316838102946125 -31.07242707718753 1.9999999999999998
    vertex 11.131683810294604 -35.67242707718753 1.9999999999999998
    vertex 6.1316838102946125 -26.172427077187535 1.9999999999999998
  endloop
endfacet
facet normal 0.0 0.0 1.0
  outer loop
    vertex 6.1316838102946125 -26.172427077187535 1.9999999999999998
    vertex 11.131683810294604 -35.67242707718753 1.9999999999999998
    vertex 6.1316838102946125 -16.572427077187523 1.9999999999999998
  endloop
endfacet
facet normal 0.0 0.0 1.0
  outer loop
    vertex 6.1316838102946125 -16.572427077187523 1.9999999999999998
    vertex 11.131683810294604 -35.67242707718753 1.9999999999999998
    vertex 6.1316838102946125 -11.672427077187539 1.9999999999999998
  endloop
endfacet
facet normal 0.0 0.0 1.0
  outer loop
    vertex 6.1316838102946125 -11.672427077187539 1.9999999999999998
    vertex 11.131683810294604 -35.67242707718753 1.9999999999999998
    vertex 6.1316838102946125 -2.072427077187539 1.9999999999999998
  endloop
endfacet
facet normal 0.0 0.0 1.0
  outer loop
    vertex 6.1316838102946125 -2.072427077187539 1.9999999999999998
    vertex 11.131683810294604 -35.67242707718753 1.9999999999999998
    vertex 6.1316838102946125 2.827572922812452 1.9999999999999998
  endloop
endfacet
facet normal 0.0 0.0 1.0
  outer loop
    vertex 6.1316838102946125 2.827572922812452 1.9999999999999998
    vertex 11.131683810294604 -35.67242707718753 1.9999999999999998
    vertex 6.1316838102946125 12.427572922812463 1.9999999999999998
  endloop
endfacet
facet normal 0.0 0.0 1.0
  outer loop
    vertex 6.1316838102946125 12.427572922812463 1.9999999999999998
    vertex 11.131683810294604 -35.67242707718753 1.9999999999999998
    vertex 6.1316838102946125 17.327572922812454 1.9999999999999998
  endloop
endfacet
facet normal 0.0 0.0 1.0
  outer loop
    vertex 6.1316838102946125 17.327572922812454 1.9999999999999998
    vertex 11.131683810294604 -35.67242707718753 1.9999999999999998
    vertex 6.1316838102946125 26.92757292281246 1.9999999999999998
  endloop
endfacet
facet normal 0.0 0.0 1.0
  outer loop
    vertex 6.1316838102946125 26.92757292281246 1.9999999999999998
    vertex 11.131683810294604 -35.67242707718753 1.9999999999999998
    vertex 6.1316838102946125 31.82757292281247 1.9999999999999998
  endloop
endfacet
facet normal 0.0 0.0 1.0
  outer loop
    vertex 6.1316838102946125 31.82757292281247 1.9999999999999998
    vertex 11.131683810294604 -35.67242707718753 1.9999999999999998
    vertex 10.731683810294603 -17.947427077187534 1.9999999999999998
  endloop
endfacet
facet normal 0.0 0.0 1.0
  outer loop
    vertex -10.868316189705391 36.427572922812466 1.9999999999999998
    vertex -6.268316189705388 31.82757292281247 1.9999999999999998
    vertex 10.731683810294603 36.827572922812465 1.9999999999999998
  endloop
endfacet
facet normal 0.0 0.0 1.0
  outer loop
    vertex -6.268316189705388 31.82757292281247 1.9999999999999998
    vertex -10.868316189705391 36.427572922812466 1.9999999999999998
    vertex -6.268316189705388 -31.07242707718753 1.9999999999999998
  endloop
endfacet
facet normal 0.0 0.0 1.0
  outer loop
    vertex -6.268316189705388 31.82757292281247 1.9999999999999998
    vertex -6.268316189705388 -31.07242707718753 1.9999999999999998
    vertex -6.268316189705388 -26.172427077187535 1.9999999999999998
  endloop
endfacet
facet normal 0.0 0.0 1.0
  outer loop
    vertex -6.268316189705388 31.82757292281247 1.9999999999999998
    vertex -6.268316189705388 -26.172427077187535 1.9999999999999998
    vertex -6.268316189705388 -16.572427077187523 1.9999999999999998
  endloop
endfacet
facet normal 0.0 0.0 1.0
  outer loop
    vertex -6.268316189705388 31.82757292281247 1.9999999999999998
    vertex -6.268316189705388 -16.572427077187523 1.9999999999999998
    vertex -6.268316189705388 -11.672427077187539 1.9999999999999998
  endloop
endfacet
facet normal 0.0 0.0 1.0
  outer loop
    vertex -6.268316189705388 31.82757292281247 1.9999999999999998
    vertex -6.268316189705388 -11.672427077187539 1.9999999999999998
    vertex -6.268316189705388 -2.072427077187539 1.9999999999999998
  endloop
endfacet
facet normal 0.0 0.0 1.0
  outer loop
    vertex -6.268316189705388 31.82757292281247 1.9999999999999998
    vertex -6.268316189705388 -2.072427077187539 1.9999999999999998
    vertex -6.268316189705388 2.827572922812452 1.9999999999999998
  endloop
endfacet
facet normal 0.0 0.0 1.0
  outer loop
    vertex -6.268316189705388 31.82757292281247 1.9999999999999998
    vertex -6.268316189705388 2.827572922812452 1.9999999999999998
    vertex -6.268316189705388 12.427572922812463 1.9999999999999998
  endloop
endfacet
facet normal 0.0 0.0 1.0
  outer loop
    vertex -6.268316189705388 31.82757292281247 1.9999999999999998
    vertex -6.268316189705388 12.427572922812463 1.9999999999999998
    vertex -6.268316189705388 17.327572922812454 1.9999999999999998
  endloop
endfacet
facet normal 0.0 0.0 1.0
  outer loop
    vertex -6.268316189705388 31.82757292281247 1.9999999999999998
    vertex -6.268316189705388 17.327572922812454 1.9999999999999998
    vertex -6.268316189705388 26.92757292281246 1.9999999999999998
  endloop
endfacet
facet normal 0.0 0.0 1.0
  outer loop
    vertex 10.731683810294603 36.827572922812465 1.9999999999999998
    vertex -6.268316189705388 31.82757292281247 1.9999999999999998
    vertex 6.1316838102946125 31.82757292281247 1.9999999999999998
  endloop
endfacet
facet normal 0.0 0.0 1.0
  outer loop
    vertex 10.731683810294603 36.827572922812465 1.9999999999999998
    vertex 6.1316838102946125 31.82757292281247 1.9999999999999998
    vertex 10.731683810294603 -17.947427077187534 1.9999999999999998
  endloop
endfacet
facet normal 0.0 0.0 1.0
  outer loop
    vertex 10.731683810294603 36.827572922812465 1.9999999999999998
    vertex 10.731683810294603 -17.947427077187534 1.9999999999999998
    vertex 10.731683810294603 0.5775729228124675 1.9999999999999998
  endloop
endfacet
facet normal 0.0 0.0 1.0
  outer loop
    vertex 10.731683810294603 36.827572922812465 1.9999999999999998
    vertex 10.731683810294603 0.5775729228124675 1.9999999999999998
    vertex 10.731683810294603 18.30257292281248 1.9999999999999998
  endloop
endfacet
facet normal 0.0 0.0 1.0
  outer loop
    vertex 6.1316838102946125 17.327572922812454 1.9999999999999998
    vertex -6.268316189705388 26.92757292281246 1.9999999999999998
    vertex -6.268316189705388 17.327572922812454 1.9999999999999998
  endloop
endfacet
facet normal 0.0 0.0 1.0
  outer loop
    vertex -6.268316189705388 26.92757292281246 1.9999999999999998
    vertex 6.1316838102946125 17.327572922812454 1.9999999999999998
    vertex 6.1316838102946125 26.92757292281246 1.9999999999999998
  endloop
endfacet
facet normal 0.0 0.0 1.0
  outer loop
    vertex 6.1316838102946125 2.827572922812452 1.9999999999999998
    vertex -6.268316189705388 12.427572922812463 1.9999999999999998
    vertex -6.268316189705388 2.827572922812452 1.9999999999999998
  endloop
endfacet
facet normal 0.0 0.0 1.0
  outer loop
    vertex -6.268316189705388 12.427572922812463 1.9999999999999998
    vertex 6.1316838102946125 2.827572922812452 1.9999999999999998
    vertex 6.1316838102946125 12.427572922812463 1.9999999999999998
  endloop
endfacet
facet normal 0.0 0.0 1.0
  outer loop
    vertex 6.1316838102946125 -11.672427077187539 1.9999999999999998
    vertex -6.268316189705388 -2.072427077187539 1.9999999999999998
    vertex -6.268316189705388 -11.672427077187539 1.9999999999999998
  endloop
endfacet
facet normal 0.0 0.0 1.0
  outer loop
    vertex -6.268316189705388 -2.072427077187539 1.9999999999999998
    vertex 6.1316838102946125 -11.672427077187539 1.9999999999999998
    vertex 6.1316838102946125 -2.072427077187539 1.9999999999999998
  endloop
endfacet
facet normal 0.0 0.0 1.0
  outer loop
    vertex 6.1316838102946125 -26.172427077187535 1.9999999999999998
    vertex -6.268316189705388 -16.572427077187523 1.9999999999999998
    vertex -6.268316189705388 -26.172427077187535 1.9999999999999998
  endloop
endfacet
facet normal 0.0 0.0 1.0
  outer loop
    vertex -6.268316189705388 -16.572427077187523 1.9999999999999998
    vertex 6.1316838102946125 -26.172427077187535 1.9999999999999998
    vertex 6.1316838102946125 -16.572427077187523 1.9999999999999998
  endloop
endfacet
facet normal -0.8574929257125443 -8.445766952029212e-18 0.5144957554275265
  outer loop
    vertex -7.268316189705397 -10.898938584303748 7.999999999999999
    vertex -10.868316189705391 0.17757292281246823 1.9999999999999998
    vertex -10.868316189705391 -17.547427077187532 1.9999999999999998
  endloop
endfacet
facet normal -0.8574929257125443 -8.445766952029212e-18 0.5144957554275265
  outer loop
    vertex -10.868316189705391 0.17757292281246823 1.9999999999999998
    vertex -7.268316189705397 -10.898938584303748 7.999999999999999
    vertex -7.268316189705397 3.0622149427659346 7.999999999999999
  endloop
endfacet
facet normal -1.0 0.0 0.0
  outer loop
    vertex -10.868316189705391 18.70257292281248 1.9999999999999998
    vertex -10.868316189705391 0.17757292281246823 0.0
    vertex -10.868316189705391 0.17757292281246823 1.9999999999999998
  endloop
endfacet
facet normal -1.0 0.0 0.0
  outer loop
    vertex -10.868316189705391 0.17757292281246823 0.0
    vertex -10.868316189705391 18.70257292281248 1.9999999999999998
    vertex -10.868316189705391 18.70257292281248 0.0
  endloop
endfacet
facet normal 1.0 0.0 0.0
  outer loop
    vertex -6.268316189705388 -26.172427077187535 1.9999999999999998
    vertex -6.268316189705388 -31.07242707718753 7.999999999999999
    vertex -6.268316189705388 -31.07242707718753 1.9999999999999998
  endloop
endfacet
facet normal 1.0 0.0 0.0
  outer loop
    vertex -6.268316189705388 -31.07242707718753 7.999999999999999
    vertex -6.268316189705388 -26.172427077187535 1.9999999999999998
    vertex -6.268316189705388 -26.172427077187535 7.999999999999999
  endloop
endfacet
facet normal -1.0 -3.9773857299688266e-17 -0.0
  outer loop
    vertex -15.868316189705393 0.17757292281246823 1.9999999999999998
    vertex -15.868316189705393 -17.547427077187532 0.0
    vertex -15.868316189705393 -17.547427077187532 1.9999999999999998
  endloop
endfacet
facet normal -1.0 -3.9773857299688266e-17 -0.0
  outer loop
    vertex -15.868316189705393 -17.547427077187532 0.0
    vertex -15.868316189705393 0.17757292281246823 1.9999999999999998
    vertex -15.868316189705393 0.17757292281246823 0.0
  endloop
endfacet
facet normal -1.0 0.0 0.0
  outer loop
    vertex 11.131683810294604 -35.67242707718753 1.9999999999999998
    vertex 11.131683810294604 -40.67242707718753 0.0
    vertex 11.131683810294604 -40.67242707718753 1.9999999999999998
  endloop
endfacet
facet normal -1.0 0.0 0.0
  outer loop
    vertex 11.131683810294604 -40.67242707718753 0.0
    vertex 11.131683810294604 -35.67242707718753 1.9999999999999998
    vertex 11.131683810294604 -35.67242707718753 0.0
  endloop
endfacet
facet normal -0.0 -1.0 -0.0
  outer loop
    vertex 15.731683810294617 -40.67242707718753 1.9999999999999998
    vertex 11.131683810294604 -40.67242707718753 0.0
    vertex 15.731683810294617 -40.67242707718753 0.0
  endloop
endfacet
facet normal -0.0 -1.0 -0.0
  outer loop
    vertex 11.131683810294604 -40.67242707718753 0.0
    vertex 15.731683810294617 -40.67242707718753 1.9999999999999998
    vertex 11.131683810294604 -40.67242707718753 1.9999999999999998
  endloop
endfacet
facet normal 0.0 1.0 0.0
  outer loop
    vertex -15.868316189705393 0.17757292281246823 1.9999999999999998
    vertex -10.868316189705391 0.17757292281246823 0.0
    vertex -15.868316189705393 0.17757292281246823 0.0
  endloop
endfacet
facet normal 0.0 1.0 0.0
  outer loop
    vertex -10.868316189705391 0.17757292281246823 0.0
    vertex -15.868316189705393 0.17757292281246823 1.9999999999999998
    vertex -10.868316189705391 0.17757292281246823 1.9999999999999998
  endloop
endfacet
facet normal 0.0 1.0 0.0
  outer loop
    vertex 0.13168381029460077 51.42757292281248 1.9999999999999998
    vertex 10.731683810294603 51.42757292281248 0.0
    vertex 0.13168381029460077 51.42757292281248 0.0
  endloop
endfacet
facet normal 0.0 1.0 0.0
  outer loop
    vertex 10.731683810294603 51.42757292281248 0.0
    vertex 0.13168381029460077 51.42757292281248 1.9999999999999998
    vertex 10.731683810294603 51.42757292281248 1.9999999999999998
  endloop
endfacet
facet normal 0.0 1.0 0.0
  outer loop
    vertex -6.268316189705388 -31.07242707718753 7.999999999999999
    vertex 6.1316838102946125 -31.07242707718753 1.9999999999999998
    vertex -6.268316189705388 -31.07242707718753 1.9999999999999998
  endloop
endfacet
facet normal 0.0 1.0 0.0
  outer loop
    vertex 6.1316838102946125 -31.07242707718753 1.9999999999999998
    vertex -6.268316189705388 -31.07242707718753 7.999999999999999
    vertex 6.1316838102946125 -31.07242707718753 7.999999999999999
  endloop
endfacet
facet normal -0.0 -1.0 -0.0
  outer loop
    vertex 11.131683810294604 -35.67242707718753 1.9999999999999998
    vertex -0.26831618970538723 -35.67242707718753 0.0
    vertex 11.131683810294604 -35.67242707718753 0.0
  endloop
endfacet
facet normal -0.0 -1.0 -0.0
  outer loop
    vertex -0.26831618970538723 -35.67242707718753 0.0
    vertex 11.131683810294604 -35.67242707718753 1.9999999999999998
    vertex -0.26831618970538723 -35.67242707718753 1.9999999999999998
  endloop
endfacet
facet normal -0.0 -1.0 -0.0
  outer loop
    vertex -10.868316189705391 -17.547427077187532 1.9999999999999998
    vertex -15.868316189705393 -17.547427077187532 0.0
    vertex -10.868316189705391 -17.547427077187532 0.0
  endloop
endfacet
facet normal -0.0 -1.0 -0.0
  outer loop
    vertex -15.868316189705393 -17.547427077187532 0.0
    vertex -10.868316189705391 -17.547427077187532 1.9999999999999998
    vertex -15.868316189705393 -17.547427077187532 1.9999999999999998
  endloop
endfacet
facet normal 1.0 0.0 0.0
  outer loop
    vertex 10.731683810294603 0.5775729228124675 0.0
    vertex 10.731683810294603 -17.947427077187534 1.9999999999999998
    vertex 10.731683810294603 -17.947427077187534 0.0
  endloop
endfacet
facet normal 1.0 0.0 0.0
  outer loop
    vertex 10.731683810294603 -17.947427077187534 1.9999999999999998
    vertex 10.731683810294603 0.5775729228124675 0.0
    vertex 10.731683810294603 0.5775729228124675 1.9999999999999998
  endloop
endfacet
facet normal -1.0 -0.0 -0.0
  outer loop
    vertex 6.1316838102946125 -26.172427077187535 7.999999999999999
    vertex 6.1316838102946125 -31.07242707718753 1.9999999999999998
    vertex 6.1316838102946125 -31.07242707718753 7.999999999999999
  endloop
endfacet
facet normal -1.0 -0.0 -0.0
  outer loop
    vertex 6.1316838102946125 -31.07242707718753 1.9999999999999998
    vertex 6.1316838102946125 -26.172427077187535 7.999999999999999
    vertex 6.1316838102946125 -26.172427077187535 1.9999999999999998
  endloop
endfacet
facet normal -1.0 0.0 0.0
  outer loop
    vertex 0.13168381029460077 51.42757292281248 1.9999999999999998
    vertex 0.13168381029460077 46.427572922812466 0.0
    vertex 0.13168381029460077 46.427572922812466 1.9999999999999998
  endloop
endfacet
facet normal -1.0 0.0 0.0
  outer loop
    vertex 0.13168381029460077 46.427572922812466 0.0
    vertex 0.13168381029460077 51.42757292281248 1.9999999999999998
    vertex 0.13168381029460077 51.42757292281248 0.0
  endloop
endfacet
facet normal -0.0 -1.0 -0.0
  outer loop
    vertex 15.731683810294617 36.827572922812465 1.9999999999999998
    vertex 10.731683810294603 36.827572922812465 0.0
    vertex 15.731683810294617 36.827572922812465 0.0
  endloop
endfacet
facet normal -0.0 -1.0 -0.0
  outer loop
    vertex 10.731683810294603 36.827572922812465 0.0
    vertex 15.731683810294617 36.827572922812465 1.9999999999999998
    vertex 10.731683810294603 36.827572922812465 1.9999999999999998
  endloop
endfacet
facet normal 1.0 0.0 0.0
  outer loop
    vertex -0.26831618970538723 -35.67242707718753 0.0
    vertex -0.26831618970538723 -40.67242707718753 1.9999999999999998
    vertex -0.26831618970538723 -40.67242707718753 0.0
  endloop
endfacet
facet normal 1.0 0.0 0.0
  outer loop
    vertex -0.26831618970538723 -40.67242707718753 1.9999999999999998
    vertex -0.26831618970538723 -35.67242707718753 0.0
    vertex -0.26831618970538723 -35.67242707718753 1.9999999999999998
  endloop
endfacet
facet normal 1.0 0.0 0.0
  outer loop
    vertex 10.731683810294603 51.42757292281248 0.0
    vertex 10.731683810294603 46.427572922812466 1.9999999999999998
    vertex 10.731683810294603 46.427572922812466 0.0
  endloop
endfacet
facet normal 1.0 0.0 0.0
  outer loop
    vertex 10.731683810294603 46.427572922812466 1.9999999999999998
    vertex 10.731683810294603 51.42757292281248 0.0
    vertex 10.731683810294603 51.42757292281248 1.9999999999999998
  endloop
endfacet
facet normal -0.0 -1.0 -0.0
  outer loop
    vertex 15.731683810294617 0.5775729228124675 1.9999999999999998
    vertex 10.731683810294603 0.5775729228124675 0.0
    vertex 15.731683810294617 0.5775729228124675 0.0
  endloop
endfacet
facet normal -0.0 -1.0 -0.0
  outer loop
    vertex 10.731683810294603 0.5775729228124675 0.0
    vertex 15.731683810294617 0.5775729228124675 1.9999999999999998
    vertex 10.731683810294603 0.5775729228124675 1.9999999999999998
  endloop
endfacet
facet normal 1.0 0.0 0.0
  outer loop
    vertex 15.731683810294617 18.30257292281248 0.0
    vertex 15.731683810294617 0.5775729228124675 1.9999999999999998
    vertex 15.731683810294617 0.5775729228124675 0.0
  endloop
endfacet
facet normal 1.0 0.0 0.0
  outer loop
    vertex 15.731683810294617 0.5775729228124675 1.9999999999999998
    vertex 15.731683810294617 18.30257292281248 0.0
    vertex 15.731683810294617 18.30257292281248 1.9999999999999998
  endloop
endfacet
facet normal 0.0 1.0 0.0
  outer loop
    vertex -10.868316189705391 46.427572922812466 1.9999999999999998
    vertex 0.13168381029460077 46.427572922812466 0.0
    vertex -10.868316189705391 46.427572922812466 0.0
  endloop
endfacet
facet normal 0.0 1.0 0.0
  outer loop
    vertex 0.13168381029460077 46.427572922812466 0.0
    vertex -10.868316189705391 46.427572922812466 1.9999999999999998
    vertex 0.13168381029460077 46.427572922812466 1.9999999999999998
  endloop
endfacet
facet normal 1.0 0.0 0.0
  outer loop
    vertex 10.731683810294603 36.827572922812465 0.0
    vertex 10.731683810294603 18.30257292281248 1.9999999999999998
    vertex 10.731683810294603 18.30257292281248 0.0
  endloop
endfacet
facet normal 1.0 0.0 0.0
  outer loop
    vertex 10.731683810294603 18.30257292281248 1.9999999999999998
    vertex 10.731683810294603 36.827572922812465 0.0
    vertex 10.731683810294603 36.827572922812465 1.9999999999999998
  endloop
endfacet
facet normal 1.0 0.0 0.0
  outer loop
    vertex 15.731683810294617 46.427572922812466 0.0
    vertex 15.731683810294617 36.827572922812465 1.9999999999999998
    vertex 15.731683810294617 36.827572922812465 0.0
  endloop
endfacet
facet normal 1.0 0.0 0.0
  outer loop
    vertex 15.731683810294617 36.827572922812465 1.9999999999999998
    vertex 15.731683810294617 46.427572922812466 0.0
    vertex 15.731683810294617 46.427572922812466 1.9999999999999998
  endloop
endfacet
facet normal 0.0 1.0 0.0
  outer loop
    vertex 10.731683810294603 -17.947427077187534 1.9999999999999998
    vertex 15.731683810294617 -17.947427077187534 0.0
    vertex 10.731683810294603 -17.947427077187534 0.0
  endloop
endfacet
facet normal 0.0 1.0 0.0
  outer loop
    vertex 15.731683810294617 -17.947427077187534 0.0
    vertex 10.731683810294603 -17.947427077187534 1.9999999999999998
    vertex 15.731683810294617 -17.947427077187534 1.9999999999999998
  endloop
endfacet
facet normal 1.0 0.0 0.0
  outer loop
    vertex 15.731683810294617 -17.947427077187534 0.0
    vertex 15.731683810294617 -40.67242707718753 1.9999999999999998
    vertex 15.731683810294617 -40.67242707718753 0.0
  endloop
endfacet
facet normal 1.0 0.0 0.0
  outer loop
    vertex 15.731683810294617 -40.67242707718753 1.9999999999999998
    vertex 15.731683810294617 -17.947427077187534 0.0
    vertex 15.731683810294617 -17.947427077187534 1.9999999999999998
  endloop
endfacet
facet normal -1.0 0.0 0.0
  outer loop
    vertex -10.868316189705391 46.427572922812466 1.9999999999999998
    vertex -10.868316189705391 36.427572922812466 0.0
    vertex -10.868316189705391 36.427572922812466 1.9999999999999998
  endloop
endfacet
facet normal -1.0 0.0 0.0
  outer loop
    vertex -10.868316189705391 36.427572922812466 0.0
    vertex -10.868316189705391 46.427572922812466 1.9999999999999998
    vertex -10.868316189705391 46.427572922812466 0.0
  endloop
endfacet
facet normal 0.0 1.0 0.0
  outer loop
    vertex 10.731683810294603 46.427572922812466 1.9999999999999998
    vertex 15.731683810294617 46.427572922812466 0.0
    vertex 10.731683810294603 46.427572922812466 0.0
  endloop
endfacet
facet normal 0.0 1.0 0.0
  outer loop
    vertex 15.731683810294617 46.427572922812466 0.0
    vertex 10.731683810294603 46.427572922812466 1.9999999999999998
    vertex 15.731683810294617 46.427572922812466 1.9999999999999998
  endloop
endfacet
facet normal 0.0 1.0 0.0
  outer loop
    vertex 10.731683810294603 18.30257292281248 1.9999999999999998
    vertex 15.731683810294617 18.30257292281248 0.0
    vertex 10.731683810294603 18.30257292281248 0.0
  endloop
endfacet
facet normal 0.0 1.0 0.0
  outer loop
    vertex 15.731683810294617 18.30257292281248 0.0
    vertex 10.731683810294603 18.30257292281248 1.9999999999999998
    vertex 15.731683810294617 18.30257292281248 1.9999999999999998
  endloop
endfacet
facet normal -1.0 0.0 0.0
  outer loop
    vertex -10.868316189705391 -33.56276551630687 1.9999999999999998
    vertex -10.868316189705391 -40.67242707718753 0.0
    vertex -10.868316189705391 -40.67242707718753 1.9999999999999998
  endloop
endfacet
facet normal -1.0 0.0 0.0
  outer loop
    vertex -10.868316189705391 -40.67242707718753 0.0
    vertex -10.868316189705391 -33.56276551630687 1.9999999999999998
    vertex -10.868316189705391 -17.547427077187532 0.0
  endloop
endfacet
facet normal -1.0 0.0 0.0
  outer loop
    vertex -10.868316189705391 -17.547427077187532 0.0
    vertex -10.868316189705391 -33.56276551630687 1.9999999999999998
    vertex -10.868316189705391 -17.547427077187532 1.9999999999999998
  endloop
endfacet
facet normal 0.0 1.0 0.0
  outer loop
    vertex -15.868316189705393 36.427572922812466 1.9999999999999998
    vertex -10.868316189705391 36.427572922812466 0.0
    vertex -15.868316189705393 36.427572922812466 0.0
  endloop
endfacet
facet normal 0.0 1.0 0.0
  outer loop
    vertex -10.868316189705391 36.427572922812466 0.0
    vertex -15.868316189705393 36.427572922812466 1.9999999999999998
    vertex -10.868316189705391 36.427572922812466 1.9999999999999998
  endloop
endfacet
facet normal -0.0 -1.0 -0.0
  outer loop
    vertex -10.868316189705391 18.70257292281248 1.9999999999999998
    vertex -15.868316189705393 18.70257292281248 0.0
    vertex -10.868316189705391 18.70257292281248 0.0
  endloop
endfacet
facet normal -0.0 -1.0 -0.0
  outer loop
    vertex -15.868316189705393 18.70257292281248 0.0
    vertex -10.868316189705391 18.70257292281248 1.9999999999999998
    vertex -15.868316189705393 18.70257292281248 1.9999999999999998
  endloop
endfacet
facet normal -1.0 0.0 0.0
  outer loop
    vertex -15.868316189705393 36.427572922812466 1.9999999999999998
    vertex -15.868316189705393 18.70257292281248 0.0
    vertex -15.868316189705393 18.70257292281248 1.9999999999999998
  endloop
endfacet
facet normal -1.0 0.0 0.0
  outer loop
    vertex -15.868316189705393 18.70257292281248 0.0
    vertex -15.868316189705393 36.427572922812466 1.9999999999999998
    vertex -15.868316189705393 36.427572922812466 0.0
  endloop
endfacet
facet normal 0.0 0.0 1.0
  outer loop
    vertex 15.731683810294617 0.5775729228124675 1.9999999999999998
    vertex 10.731683810294603 18.30257292281248 1.9999999999999998
    vertex 10.731683810294603 0.5775729228124675 1.9999999999999998
  endloop
endfacet
facet normal 0.0 0.0 1.0
  outer loop
    vertex 10.731683810294603 18.30257292281248 1.9999999999999998
    vertex 15.731683810294617 0.5775729228124675 1.9999999999999998
    vertex 15.731683810294617 18.30257292281248 1.9999999999999998
  endloop
endfacet
facet normal -8.31358043203979e-18 -1.0 -0.0
  outer loop
    vertex -0.26831618970538723 -40.67242707718753 1.9999999999999998
    vertex -10.868316189705391 -40.67242707718753 0.0
    vertex -0.26831618970538723 -40.67242707718753 0.0
  endloop
endfacet
facet normal -8.31358043203979e-18 -1.0 -0.0
  outer loop
    vertex -10.868316189705391 -40.67242707718753 0.0
    vertex -0.26831618970538723 -40.67242707718753 1.9999999999999998
    vertex -10.868316189705391 -40.67242707718753 1.9999999999999998
  endloop
endfacet
facet normal 0.0 -1.0 0.0
  outer loop
    vertex 6.1316838102946125 -26.172427077187535 7.999999999999999
    vertex -6.268316189705388 -26.172427077187535 1.9999999999999998
    vertex 6.1316838102946125 -26.172427077187535 1.9999999999999998
  endloop
endfacet
facet normal 0.0 -1.0 0.0
  outer loop
    vertex -6.268316189705388 -26.172427077187535 1.9999999999999998
    vertex 6.1316838102946125 -26.172427077187535 7.999999999999999
    vertex -6.268316189705388 -26.172427077187535 7.999999999999999
  endloop
endfacet
facet normal -0.8574929257125443 -1.8287159213863727e-18 0.5144957554275263
  outer loop
    vertex -7.268316189705397 3.0622149427659346 7.999999999999999
    vertex -10.868316189705391 18.70257292281248 1.9999999999999998
    vertex -10.868316189705391 0.17757292281246823 1.9999999999999998
  endloop
endfacet
facet normal -0.8574929257125443 -1.8287159213863727e-18 0.5144957554275263
  outer loop
    vertex -10.868316189705391 18.70257292281248 1.9999999999999998
    vertex -7.268316189705397 3.0622149427659346 7.999999999999999
    vertex -7.268316189705397 18.70257292281248 7.999999999999999
  endloop
endfacet
facet normal 0.0 -1.0 0.0
  outer loop
    vertex 6.1316838102946125 -26.172427077187535 1.9999999999999998
    vertex -6.268316189705388 -26.172427077187535 0.9999999999999999
    vertex 6.1316838102946125 -26.172427077187535 0.9999999999999999
  endloop
endfacet
facet normal 0.0 -1.0 0.0
  outer loop
    vertex -6.268316189705388 -26.172427077187535 0.9999999999999999
    vertex 6.1316838102946125 -26.172427077187535 1.9999999999999998
    vertex -6.268316189705388 -26.172427077187535 1.9999999999999998
  endloop
endfacet
facet normal -0.8574929257125443 -3.0502297488648756e-17 0.5144957554275263
  outer loop
    vertex -7.268316189705397 -32.07242707718753 7.999999999999999
    vertex -10.868316189705391 -17.547427077187532 1.9999999999999998
    vertex -10.868316189705391 -33.56276551630687 1.9999999999999998
  endloop
endfacet
facet normal -0.8574929257125443 -3.0502297488648756e-17 0.5144957554275263
  outer loop
    vertex -10.868316189705391 -17.547427077187532 1.9999999999999998
    vertex -7.268316189705397 -32.07242707718753 7.999999999999999
    vertex -7.268316189705397 -10.898938584303748 7.999999999999999
  endloop
endfacet
facet normal -2.5493007869226085e-17 -0.8574929257125441 0.5144957554275265
  outer loop
    vertex 7.131683810294611 -32.07242707718753 7.999999999999999
    vertex -0.26831618970538723 -35.67242707718753 1.9999999999999998
    vertex 11.131683810294604 -35.67242707718753 1.9999999999999998
  endloop
endfacet
facet normal -2.5493007869226085e-17 -0.8574929257125441 0.5144957554275265
  outer loop
    vertex -0.26831618970538723 -35.67242707718753 1.9999999999999998
    vertex 7.131683810294611 -32.07242707718753 7.999999999999999
    vertex -7.268316189705397 -32.07242707718753 7.999999999999999
  endloop
endfacet
facet normal 0.0 0.0 1.0
  outer loop
    vertex -10.868316189705391 -17.547427077187532 1.9999999999999998
    vertex -15.868316189705393 0.17757292281246823 1.9999999999999998
    vertex -15.868316189705393 -17.547427077187532 1.9999999999999998
  endloop
endfacet
facet normal 0.0 0.0 1.0
  outer loop
    vertex -15.868316189705393 0.17757292281246823 1.9999999999999998
    vertex -10.868316189705391 -17.547427077187532 1.9999999999999998
    vertex -10.868316189705391 0.17757292281246823 1.9999999999999998
  endloop
endfacet
facet normal 0.0 0.0 1.0
  outer loop
    vertex -7.268316189705397 -32.07242707718753 7.999999999999999
    vertex -6.268316189705388 -31.07242707718753 7.999999999999999
    vertex -7.268316189705397 -10.898938584303748 7.999999999999999
  endloop
endfacet
facet normal 0.0 0.0 1.0
  outer loop
    vertex -6.268316189705388 -31.07242707718753 7.999999999999999
    vertex -7.268316189705397 -32.07242707718753 7.999999999999999
    vertex 7.131683810294611 -32.07242707718753 7.999999999999999
  endloop
endfacet
facet normal 0.0 0.0 1.0
  outer loop
    vertex -7.268316189705397 -10.898938584303748 7.999999999999999
    vertex -6.268316189705388 -31.07242707718753 7.999999999999999
    vertex -7.268316189705397 3.0622149427659346 7.999999999999999
  endloop
endfacet
facet normal 0.0 0.0 1.0
  outer loop
    vertex -7.268316189705397 3.0622149427659346 7.999999999999999
    vertex -6.268316189705388 -31.07242707718753 7.999999999999999
    vertex -7.268316189705397 18.70257292281248 7.999999999999999
  endloop
endfacet
facet normal 0.0 0.0 1.0
  outer loop
    vertex -7.268316189705397 18.70257292281248 7.999999999999999
    vertex -6.268316189705388 -31.07242707718753 7.999999999999999
    vertex -7.268316189705397 32.82757292281247 7.999999999999999
  endloop
endfacet
facet normal 0.0 0.0 1.0
  outer loop
    vertex -6.268316189705388 -31.07242707718753 7.999999999999999
    vertex 7.131683810294611 -32.07242707718753 7.999999999999999
    vertex 6.1316838102946125 -31.07242707718753 7.999999999999999
  endloop
endfacet
facet normal 0.0 0.0 1.0
  outer loop
    vertex 6.1316838102946125 -31.07242707718753 7.999999999999999
    vertex 7.131683810294611 -32.07242707718753 7.999999999999999
    vertex 6.1316838102946125 -26.172427077187535 7.999999999999999
  endloop
endfacet
facet normal 0.0 0.0 1.0
  outer loop
    vertex 6.1316838102946125 -26.172427077187535 7.999999999999999
    vertex 7.131683810294611 -32.07242707718753 7.999999999999999
    vertex 6.1316838102946125 -16.572427077187523 7.999999999999999
  endloop
endfacet
facet normal 0.0 0.0 1.0
  outer loop
    vertex 6.1316838102946125 -16.572427077187523 7.999999999999999
    vertex 7.131683810294611 -32.07242707718753 7.999999999999999
    vertex 6.1316838102946125 -11.672427077187539 7.999999999999999
  endloop
endfacet
facet normal 0.0 0.0 1.0
  outer loop
    vertex 6.1316838102946125 -11.672427077187539 7.999999999999999
    vertex 7.131683810294611 -32.07242707718753 7.999999999999999
    vertex 6.1316838102946125 -2.072427077187539 7.999999999999999
  endloop
endfacet
facet normal 0.0 0.0 1.0
  outer loop
    vertex 6.1316838102946125 -2.072427077187539 7.999999999999999
    vertex 7.131683810294611 -32.07242707718753 7.999999999999999
    vertex 6.1316838102946125 2.827572922812452 7.999999999999999
  endloop
endfacet
facet normal 0.0 0.0 1.0
  outer loop
    vertex 6.1316838102946125 2.827572922812452 7.999999999999999
    vertex 7.131683810294611 -32.07242707718753 7.999999999999999
    vertex 6.1316838102946125 12.427572922812463 7.999999999999999
  endloop
endfacet
facet normal 0.0 0.0 1.0
  outer loop
    vertex 6.1316838102946125 12.427572922812463 7.999999999999999
    vertex 7.131683810294611 -32.07242707718753 7.999999999999999
    vertex 6.1316838102946125 17.327572922812454 7.999999999999999
  endloop
endfacet
facet normal 0.0 0.0 1.0
  outer loop
    vertex 6.1316838102946125 17.327572922812454 7.999999999999999
    vertex 7.131683810294611 -32.07242707718753 7.999999999999999
    vertex 6.1316838102946125 26.92757292281246 7.999999999999999
  endloop
endfacet
facet normal 0.0 0.0 1.0
  outer loop
    vertex 6.1316838102946125 26.92757292281246 7.999999999999999
    vertex 7.131683810294611 -32.07242707718753 7.999999999999999
    vertex 6.1316838102946125 31.82757292281247 7.999999999999999
  endloop
endfacet
facet normal 0.0 0.0 1.0
  outer loop
    vertex -7.268316189705397 32.82757292281247 7.999999999999999
    vertex -6.268316189705388 31.82757292281247 7.999999999999999
    vertex 7.131683810294611 32.82757292281247 7.999999999999999
  endloop
endfacet
facet normal 0.0 0.0 1.0
  outer loop
    vertex -6.268316189705388 31.82757292281247 7.999999999999999
    vertex -7.268316189705397 32.82757292281247 7.999999999999999
    vertex -6.268316189705388 -31.07242707718753 7.999999999999999
  endloop
endfacet
facet normal 0.0 0.0 1.0
  outer loop
    vertex -6.268316189705388 31.82757292281247 7.999999999999999
    vertex -6.268316189705388 -31.07242707718753 7.999999999999999
    vertex -6.268316189705388 -26.172427077187535 7.999999999999999
  endloop
endfacet
facet normal 0.0 0.0 1.0
  outer loop
    vertex -6.268316189705388 31.82757292281247 7.999999999999999
    vertex -6.268316189705388 -26.172427077187535 7.999999999999999
    vertex -6.268316189705388 -16.572427077187523 7.999999999999999
  endloop
endfacet
facet normal 0.0 0.0 1.0
  outer loop
    vertex -6.268316189705388 31.82757292281247 7.999999999999999
    vertex -6.268316189705388 -16.572427077187523 7.999999999999999
    vertex -6.268316189705388 -11.672427077187539 7.999999999999999
  endloop
endfacet
facet normal 0.0 0.0 1.0
  outer loop
    vertex -6.268316189705388 31.82757292281247 7.999999999999999
    vertex -6.268316189705388 -11.672427077187539 7.999999999999999
    vertex -6.268316189705388 -2.072427077187539 7.999999999999999
  endloop
endfacet
facet normal 0.0 0.0 1.0
  outer loop
    vertex -6.268316189705388 31.82757292281247 7.999999999999999
    vertex -6.268316189705388 -2.072427077187539 7.999999999999999
    vertex -6.268316189705388 2.827572922812452 7.999999999999999
  endloop
endfacet
facet normal 0.0 0.0 1.0
  outer loop
    vertex -6.268316189705388 31.82757292281247 7.999999999999999
    vertex -6.268316189705388 2.827572922812452 7.999999999999999
    vertex -6.268316189705388 12.427572922812463 7.999999999999999
  endloop
endfacet
facet normal 0.0 0.0 1.0
  outer loop
    vertex -6.268316189705388 31.82757292281247 7.999999999999999
    vertex -6.268316189705388 12.427572922812463 7.999999999999999
    vertex -6.268316189705388 17.327572922812454 7.999999999999999
  endloop
endfacet
facet normal 0.0 0.0 1.0
  outer loop
    vertex -6.268316189705388 31.82757292281247 7.999999999999999
    vertex -6.268316189705388 17.327572922812454 7.999999999999999
    vertex -6.268316189705388 26.92757292281246 7.999999999999999
  endloop
endfacet
facet normal 0.0 0.0 1.0
  outer loop
    vertex 7.131683810294611 32.82757292281247 7.999999999999999
    vertex -6.268316189705388 31.82757292281247 7.999999999999999
    vertex 6.1316838102946125 31.82757292281247 7.999999999999999
  endloop
endfacet
facet normal 0.0 0.0 1.0
  outer loop
    vertex 7.131683810294611 32.82757292281247 7.999999999999999
    vertex 6.1316838102946125 31.82757292281247 7.999999999999999
    vertex 7.131683810294611 -32.07242707718753 7.999999999999999
  endloop
endfacet
facet normal 0.0 0.0 1.0
  outer loop
    vertex 7.131683810294611 32.82757292281247 7.999999999999999
    vertex 7.131683810294611 -32.07242707718753 7.999999999999999
    vertex 7.131683810294611 -16.487529093944 7.999999999999999
  endloop
endfacet
facet normal 0.0 0.0 1.0
  outer loop
    vertex 7.131683810294611 32.82757292281247 7.999999999999999
    vertex 7.131683810294611 -16.487529093944 7.999999999999999
    vertex 7.131683810294611 -0.12705555756101847 7.999999999999999
  endloop
endfacet
facet normal 0.0 0.0 1.0
  outer loop
    vertex 7.131683810294611 32.82757292281247 7.999999999999999
    vertex 7.131683810294611 -0.12705555756101847 7.999999999999999
    vertex 7.131683810294611 15.404648649449204 7.999999999999999
  endloop
endfacet
facet normal 0.0 0.0 1.0
  outer loop
    vertex 6.1316838102946125 17.327572922812454 7.999999999999999
    vertex -6.268316189705388 26.92757292281246 7.999999999999999
    vertex -6.268316189705388 17.327572922812454 7.999999999999999
  endloop
endfacet
facet normal 0.0 0.0 1.0
  outer loop
    vertex -6.268316189705388 26.92757292281246 7.999999999999999
    vertex 6.1316838102946125 17.327572922812454 7.999999999999999
    vertex 6.1316838102946125 26.92757292281246 7.999999999999999
  endloop
endfacet
facet normal 0.0 0.0 1.0
  outer loop
    vertex 6.1316838102946125 2.827572922812452 7.999999999999999
    vertex -6.268316189705388 12.427572922812463 7.999999999999999
    vertex -6.268316189705388 2.827572922812452 7.999999999999999
  endloop
endfacet
facet normal 0.0 0.0 1.0
  outer loop
    vertex -6.268316189705388 12.427572922812463 7.999999999999999
    vertex 6.1316838102946125 2.827572922812452 7.999999999999999
    vertex 6.1316838102946125 12.427572922812463 7.999999999999999
  endloop
endfacet
facet normal 0.0 0.0 1.0
  outer loop
    vertex 6.1316838102946125 -11.672427077187539 7.999999999999999
    vertex -6.268316189705388 -2.072427077187539 7.999999999999999
    vertex -6.268316189705388 -11.672427077187539 7.999999999999999
  endloop
endfacet
facet normal 0.0 0.0 1.0
  outer loop
    vertex -6.268316189705388 -2.072427077187539 7.999999999999999
    vertex 6.1316838102946125 -11.672427077187539 7.999999999999999
    vertex 6.1316838102946125 -2.072427077187539 7.999999999999999
  endloop
endfacet
facet normal 0.0 0.0 1.0
  outer loop
    vertex 6.1316838102946125 -26.172427077187535 7.999999999999999
    vertex -6.268316189705388 -16.572427077187523 7.999999999999999
    vertex -6.268316189705388 -26.172427077187535 7.999999999999999
  endloop
endfacet
facet normal 0.0 0.0 1.0
  outer loop
    vertex -6.268316189705388 -16.572427077187523 7.999999999999999
    vertex 6.1316838102946125 -26.172427077187535 7.999999999999999
    vertex 6.1316838102946125 -16.572427077187523 7.999999999999999
  endloop
endfacet
facet normal 0.8574929257125441 0.0 0.5144957554275267
  outer loop
    vertex 7.131683810294611 -16.487529093944 7.999999999999999
    vertex 7.131683810294611 -32.07242707718753 7.999999999999999
    vertex 10.731683810294603 -17.947427077187534 1.9999999999999998
  endloop
endfacet
facet normal -0.18361499078890012 -0.9225739988123359 0.33932691003368476
  outer loop
    vertex -7.268316189705397 -32.07242707718753 7.999999999999999
    vertex -10.868316189705391 -33.56276551630687 1.9999999999999998
    vertex -0.26831618970538723 -35.67242707718753 1.9999999999999998
  endloop
endfacet
facet normal 0.0 1.0 0.0
  outer loop
    vertex -6.268316189705388 -31.07242707718753 1.9999999999999998
    vertex 6.1316838102946125 -31.07242707718753 0.9999999999999999
    vertex -6.268316189705388 -31.07242707718753 0.9999999999999999
  endloop
endfacet
facet normal 0.0 1.0 0.0
  outer loop
    vertex 6.1316838102946125 -31.07242707718753 0.9999999999999999
    vertex -6.268316189705388 -31.07242707718753 1.9999999999999998
    vertex 6.1316838102946125 -31.07242707718753 1.9999999999999998
  endloop
endfacet
facet normal 0.0 1.0 0.0
  outer loop
    vertex -6.268316189705388 26.92757292281246 1.9999999999999998
    vertex 6.1316838102946125 26.92757292281246 0.9999999999999999
    vertex -6.268316189705388 26.92757292281246 0.9999999999999999
  endloop
endfacet
facet normal 0.0 1.0 0.0
  outer loop
    vertex 6.1316838102946125 26.92757292281246 0.9999999999999999
    vertex -6.268316189705388 26.92757292281246 1.9999999999999998
    vertex 6.1316838102946125 26.92757292281246 1.9999999999999998
  endloop
endfacet
facet normal 1.0 0.0 0.0
  outer loop
    vertex -6.268316189705388 17.327572922812454 0.9999999999999999
    vertex -6.268316189705388 12.427572922812463 1.9999999999999998
    vertex -6.268316189705388 12.427572922812463 0.9999999999999999
  endloop
endfacet
facet normal 1.0 0.0 0.0
  outer loop
    vertex -6.268316189705388 12.427572922812463 1.9999999999999998
    vertex -6.268316189705388 17.327572922812454 0.9999999999999999
    vertex -6.268316189705388 17.327572922812454 1.9999999999999998
  endloop
endfacet
facet normal 0.0 1.0 0.0
  outer loop
    vertex -6.268316189705388 12.427572922812463 1.9999999999999998
    vertex 6.1316838102946125 12.427572922812463 0.9999999999999999
    vertex -6.268316189705388 12.427572922812463 0.9999999999999999
  endloop
endfacet
facet normal 0.0 1.0 0.0
  outer loop
    vertex 6.1316838102946125 12.427572922812463 0.9999999999999999
    vertex -6.268316189705388 12.427572922812463 1.9999999999999998
    vertex 6.1316838102946125 12.427572922812463 1.9999999999999998
  endloop
endfacet
facet normal 1.0 0.0 0.0
  outer loop
    vertex -6.268316189705388 -26.172427077187535 0.9999999999999999
    vertex -6.268316189705388 -31.07242707718753 1.9999999999999998
    vertex -6.268316189705388 -31.07242707718753 0.9999999999999999
  endloop
endfacet
facet normal 1.0 0.0 0.0
  outer loop
    vertex -6.268316189705388 -31.07242707718753 1.9999999999999998
    vertex -6.268316189705388 -26.172427077187535 0.9999999999999999
    vertex -6.268316189705388 -26.172427077187535 1.9999999999999998
  endloop
endfacet
facet normal -1.0 0.0 0.0
  outer loop
    vertex 6.1316838102946125 -26.172427077187535 1.9999999999999998
    vertex 6.1316838102946125 -31.07242707718753 0.9999999999999999
    vertex 6.1316838102946125 -31.07242707718753 1.9999999999999998
  endloop
endfacet
facet normal -1.0 0.0 0.0
  outer loop
    vertex 6.1316838102946125 -31.07242707718753 0.9999999999999999
    vertex 6.1316838102946125 -26.172427077187535 1.9999999999999998
    vertex 6.1316838102946125 -26.172427077187535 0.9999999999999999
  endloop
endfacet
facet normal -1.0 -0.0 -0.0
  outer loop
    vertex 6.1316838102946125 2.827572922812452 7.999999999999999
    vertex 6.1316838102946125 -2.072427077187539 1.9999999999999998
    vertex 6.1316838102946125 -2.072427077187539 7.999999999999999
  endloop
endfacet
facet normal -1.0 -0.0 -0.0
  outer loop
    vertex 6.1316838102946125 -2.072427077187539 1.9999999999999998
    vertex 6.1316838102946125 2.827572922812452 7.999999999999999
    vertex 6.1316838102946125 2.827572922812452 1.9999999999999998
  endloop
endfacet
facet normal 1.0 0.0 0.0
  outer loop
    vertex -6.268316189705388 2.827572922812452 1.9999999999999998
    vertex -6.268316189705388 -2.072427077187539 7.999999999999999
    vertex -6.268316189705388 -2.072427077187539 1.9999999999999998
  endloop
endfacet
facet normal 1.0 0.0 0.0
  outer loop
    vertex -6.268316189705388 -2.072427077187539 7.999999999999999
    vertex -6.268316189705388 2.827572922812452 1.9999999999999998
    vertex -6.268316189705388 2.827572922812452 7.999999999999999
  endloop
endfacet
facet normal 9.096666072735155e-16 1.0 -1.6954361172086038e-46
  outer loop
    vertex -6.268316189705388 -2.072427077187539 1.9999999999999998
    vertex 6.1316838102946125 -2.072427077187539 0.9999999999999999
    vertex -6.268316189705388 -2.072427077187539 0.9999999999999999
  endloop
endfacet
facet normal 9.096666072735155e-16 1.0 -1.6954361172086038e-46
  outer loop
    vertex 6.1316838102946125 -2.072427077187539 0.9999999999999999
    vertex -6.268316189705388 -2.072427077187539 1.9999999999999998
    vertex 6.1316838102946125 -2.072427077187539 1.9999999999999998
  endloop
endfacet
facet normal 1.0 0.0 0.0
  outer loop
    vertex -6.268316189705388 -11.672427077187539 0.9999999999999999
    vertex -6.268316189705388 -16.572427077187523 1.9999999999999998
    vertex -6.268316189705388 -16.572427077187523 0.9999999999999999
  endloop
endfacet
facet normal 1.0 0.0 0.0
  outer loop
    vertex -6.268316189705388 -16.572427077187523 1.9999999999999998
    vertex -6.268316189705388 -11.672427077187539 0.9999999999999999
    vertex -6.268316189705388 -11.672427077187539 1.9999999999999998
  endloop
endfacet
facet normal 0.0 -1.0 0.0
  outer loop
    vertex 6.1316838102946125 2.827572922812452 7.999999999999999
    vertex -6.268316189705388 2.827572922812452 1.9999999999999998
    vertex 6.1316838102946125 2.827572922812452 1.9999999999999998
  endloop
endfacet
facet normal 0.0 -1.0 0.0
  outer loop
    vertex -6.268316189705388 2.827572922812452 1.9999999999999998
    vertex 6.1316838102946125 2.827572922812452 7.999999999999999
    vertex -6.268316189705388 2.827572922812452 7.999999999999999
  endloop
endfacet
facet normal 0.0 0.0 1.0
  outer loop
    vertex 15.731683810294617 36.827572922812465 1.9999999999999998
    vertex 10.731683810294603 46.427572922812466 1.9999999999999998
    vertex 10.731683810294603 36.827572922812465 1.9999999999999998
  endloop
endfacet
facet normal 0.0 0.0 1.0
  outer loop
    vertex 10.731683810294603 46.427572922812466 1.9999999999999998
    vertex 15.731683810294617 36.827572922812465 1.9999999999999998
    vertex 15.731683810294617 46.427572922812466 1.9999999999999998
  endloop
endfacet
facet normal 0.0 0.0 1.0
  outer loop
    vertex 10.731683810294603 36.827572922812465 1.9999999999999998
    vertex -10.868316189705391 46.427572922812466 1.9999999999999998
    vertex -10.868316189705391 36.427572922812466 1.9999999999999998
  endloop
endfacet
facet normal 0.0 0.0 1.0
  outer loop
    vertex -10.868316189705391 46.427572922812466 1.9999999999999998
    vertex 10.731683810294603 36.827572922812465 1.9999999999999998
    vertex 0.13168381029460077 46.427572922812466 1.9999999999999998
  endloop
endfacet
facet normal 0.0 0.0 1.0
  outer loop
    vertex 0.13168381029460077 46.427572922812466 1.9999999999999998
    vertex 10.731683810294603 36.827572922812465 1.9999999999999998
    vertex 0.13168381029460077 51.42757292281248 1.9999999999999998
  endloop
endfacet
facet normal 0.0 0.0 1.0
  outer loop
    vertex 0.13168381029460077 51.42757292281248 1.9999999999999998
    vertex 10.731683810294603 36.827572922812465 1.9999999999999998
    vertex 10.731683810294603 51.42757292281248 1.9999999999999998
  endloop
endfacet
facet normal 0.0 0.0 1.0
  outer loop
    vertex 10.731683810294603 51.42757292281248 1.9999999999999998
    vertex 10.731683810294603 36.827572922812465 1.9999999999999998
    vertex 10.731683810294603 46.427572922812466 1.9999999999999998
  endloop
endfacet
facet normal 0.0 -1.0 0.0
  outer loop
    vertex 6.1316838102946125 17.327572922812454 7.999999999999999
    vertex -6.268316189705388 17.327572922812454 1.9999999999999998
    vertex 6.1316838102946125 17.327572922812454 1.9999999999999998
  endloop
endfacet
facet normal 0.0 -1.0 0.0
  outer loop
    vertex -6.268316189705388 17.327572922812454 1.9999999999999998
    vertex 6.1316838102946125 17.327572922812454 7.999999999999999
    vertex -6.268316189705388 17.327572922812454 7.999999999999999
  endloop
endfacet
facet normal 0.0 1.0 0.0
  outer loop
    vertex -6.268316189705388 -16.572427077187523 1.9999999999999998
    vertex 6.1316838102946125 -16.572427077187523 0.9999999999999999
    vertex -6.268316189705388 -16.572427077187523 0.9999999999999999
  endloop
endfacet
facet normal 0.0 1.0 0.0
  outer loop
    vertex 6.1316838102946125 -16.572427077187523 0.9999999999999999
    vertex -6.268316189705388 -16.572427077187523 1.9999999999999998
    vertex 6.1316838102946125 -16.572427077187523 1.9999999999999998
  endloop
endfacet
facet normal -3.1102797361282345e-17 0.8574929257125438 0.5144957554275272
  outer loop
    vertex 7.131683810294611 32.82757292281247 7.999999999999999
    vertex -10.868316189705391 36.427572922812466 1.9999999999999998
    vertex -7.268316189705397 32.82757292281247 7.999999999999999
  endloop
endfacet
facet normal 1.0 0.0 0.0
  outer loop
    vertex -6.268316189705388 17.327572922812454 1.9999999999999998
    vertex -6.268316189705388 12.427572922812463 7.999999999999999
    vertex -6.268316189705388 12.427572922812463 1.9999999999999998
  endloop
endfacet
facet normal 1.0 0.0 0.0
  outer loop
    vertex -6.268316189705388 12.427572922812463 7.999999999999999
    vertex -6.268316189705388 17.327572922812454 1.9999999999999998
    vertex -6.268316189705388 17.327572922812454 7.999999999999999
  endloop
endfacet
facet normal 0.8574929257125441 -6.648253023283932e-18 0.5144957554275267
  outer loop
    vertex 10.731683810294603 18.30257292281248 1.9999999999999998
    vertex 7.131683810294611 32.82757292281247 7.999999999999999
    vertex 7.131683810294611 15.404648649449204 7.999999999999999
  endloop
endfacet
facet normal 0.8574929257125441 -6.648253023283932e-18 0.5144957554275267
  outer loop
    vertex 7.131683810294611 32.82757292281247 7.999999999999999
    vertex 10.731683810294603 18.30257292281248 1.9999999999999998
    vertex 10.731683810294603 36.827572922812465 1.9999999999999998
  endloop
endfacet
facet normal -0.015485443247068341 0.8362139353416914 0.5481846909462205
  outer loop
    vertex 7.131683810294611 32.82757292281247 7.999999999999999
    vertex 10.731683810294603 36.827572922812465 1.9999999999999998
    vertex -10.868316189705391 36.427572922812466 1.9999999999999998
  endloop
endfacet
facet normal 9.096666072735151e-16 1.0 0.0
  outer loop
    vertex -6.268316189705388 -2.072427077187539 7.999999999999999
    vertex 6.1316838102946125 -2.072427077187539 1.9999999999999998
    vertex -6.268316189705388 -2.072427077187539 1.9999999999999998
  endloop
endfacet
facet normal 9.096666072735151e-16 1.0 0.0
  outer loop
    vertex 6.1316838102946125 -2.072427077187539 1.9999999999999998
    vertex -6.268316189705388 -2.072427077187539 7.999999999999999
    vertex 6.1316838102946125 -2.072427077187539 7.999999999999999
  endloop
endfacet
facet normal -1.0 0.0 0.0
  outer loop
    vertex 6.1316838102946125 31.82757292281247 7.999999999999999
    vertex 6.1316838102946125 26.92757292281246 1.9999999999999998
    vertex 6.1316838102946125 26.92757292281246 7.999999999999999
  endloop
endfacet
facet normal -1.0 0.0 0.0
  outer loop
    vertex 6.1316838102946125 26.92757292281246 1.9999999999999998
    vertex 6.1316838102946125 31.82757292281247 7.999999999999999
    vertex 6.1316838102946125 31.82757292281247 1.9999999999999998
  endloop
endfacet
facet normal 0.0 1.0 0.0
  outer loop
    vertex -6.268316189705388 26.92757292281246 7.999999999999999
    vertex 6.1316838102946125 26.92757292281246 1.9999999999999998
    vertex -6.268316189705388 26.92757292281246 1.9999999999999998
  endloop
endfacet
facet normal 0.0 1.0 0.0
  outer loop
    vertex 6.1316838102946125 26.92757292281246 1.9999999999999998
    vertex -6.268316189705388 26.92757292281246 7.999999999999999
    vertex 6.1316838102946125 26.92757292281246 7.999999999999999
  endloop
endfacet
facet normal 1.0 0.0 0.0
  outer loop
    vertex -6.268316189705388 31.82757292281247 1.9999999999999998
    vertex -6.268316189705388 26.92757292281246 7.999999999999999
    vertex -6.268316189705388 26.92757292281246 1.9999999999999998
  endloop
endfacet
facet normal 1.0 0.0 0.0
  outer loop
    vertex -6.268316189705388 26.92757292281246 7.999999999999999
    vertex -6.268316189705388 31.82757292281247 1.9999999999999998
    vertex -6.268316189705388 31.82757292281247 7.999999999999999
  endloop
endfacet
facet normal 0.0 1.0 0.0
  outer loop
    vertex -6.268316189705388 12.427572922812463 7.999999999999999
    vertex 6.1316838102946125 12.427572922812463 1.9999999999999998
    vertex -6.268316189705388 12.427572922812463 1.9999999999999998
  endloop
endfacet
facet normal 0.0 1.0 0.0
  outer loop
    vertex 6.1316838102946125 12.427572922812463 1.9999999999999998
    vertex -6.268316189705388 12.427572922812463 7.999999999999999
    vertex 6.1316838102946125 12.427572922812463 7.999999999999999
  endloop
endfacet
facet normal 0.0 -1.0 0.0
  outer loop
    vertex 6.1316838102946125 31.82757292281247 7.999999999999999
    vertex -6.268316189705388 31.82757292281247 1.9999999999999998
    vertex 6.1316838102946125 31.82757292281247 1.9999999999999998
  endloop
endfacet
facet normal 0.0 -1.0 0.0
  outer loop
    vertex -6.268316189705388 31.82757292281247 1.9999999999999998
    vertex 6.1316838102946125 31.82757292281247 7.999999999999999
    vertex -6.268316189705388 31.82757292281247 7.999999999999999
  endloop
endfacet
facet normal -1.0 0.0 0.0
  outer loop
    vertex 6.1316838102946125 17.327572922812454 7.999999999999999
    vertex 6.1316838102946125 12.427572922812463 1.9999999999999998
    vertex 6.1316838102946125 12.427572922812463 7.999999999999999
  endloop
endfacet
facet normal -1.0 0.0 0.0
  outer loop
    vertex 6.1316838102946125 12.427572922812463 1.9999999999999998
    vertex 6.1316838102946125 17.327572922812454 7.999999999999999
    vertex 6.1316838102946125 17.327572922812454 1.9999999999999998
  endloop
endfacet
facet normal 0.0 -1.0 0.0
  outer loop
    vertex 6.1316838102946125 31.82757292281247 1.9999999999999998
    vertex -6.268316189705388 31.82757292281247 0.9999999999999999
    vertex 6.1316838102946125 31.82757292281247 0.9999999999999999
  endloop
endfacet
facet normal 0.0 -1.0 0.0
  outer loop
    vertex -6.268316189705388 31.82757292281247 0.9999999999999999
    vertex 6.1316838102946125 31.82757292281247 1.9999999999999998
    vertex -6.268316189705388 31.82757292281247 1.9999999999999998
  endloop
endfacet
facet normal -1.0 0.0 0.0
  outer loop
    vertex 6.1316838102946125 31.82757292281247 1.9999999999999998
    vertex 6.1316838102946125 26.92757292281246 0.9999999999999999
    vertex 6.1316838102946125 26.92757292281246 1.9999999999999998
  endloop
endfacet
facet normal -1.0 0.0 0.0
  outer loop
    vertex 6.1316838102946125 26.92757292281246 0.9999999999999999
    vertex 6.1316838102946125 31.82757292281247 1.9999999999999998
    vertex 6.1316838102946125 31.82757292281247 0.9999999999999999
  endloop
endfacet
facet normal 0.8574929257125442 -2.6735370871535635e-17 0.5144957554275268
  outer loop
    vertex 7.131683810294611 15.404648649449204 7.999999999999999
    vertex 7.131683810294611 -0.12705555756101847 7.999999999999999
    vertex 10.731683810294603 0.5775729228124675 1.9999999999999998
  endloop
endfacet
facet normal 0.8574929257125441 -1.7597266239498334e-18 0.5144957554275267
  outer loop
    vertex 10.731683810294603 0.5775729228124675 1.9999999999999998
    vertex 7.131683810294611 -16.487529093944 7.999999999999999
    vertex 10.731683810294603 -17.947427077187534 1.9999999999999998
  endloop
endfacet
facet normal 0.8574929257125441 -1.7597266239498334e-18 0.5144957554275267
  outer loop
    vertex 7.131683810294611 -16.487529093944 7.999999999999999
    vertex 10.731683810294603 0.5775729228124675 1.9999999999999998
    vertex 7.131683810294611 -0.12705555756101847 7.999999999999999
  endloop
endfacet
facet normal 1.0 0.0 0.0
  outer loop
    vertex -6.268316189705388 2.827572922812452 0.9999999999999999
    vertex -6.268316189705388 -2.072427077187539 1.9999999999999998
    vertex -6.268316189705388 -2.072427077187539 0.9999999999999999
  endloop
endfacet
facet normal 1.0 0.0 0.0
  outer loop
    vertex -6.268316189705388 -2.072427077187539 1.9999999999999998
    vertex -6.268316189705388 2.827572922812452 0.9999999999999999
    vertex -6.268316189705388 2.827572922812452 1.9999999999999998
  endloop
endfacet
facet normal 0.0 0.0 1.0
  outer loop
    vertex 6.1316838102946125 -31.07242707718753 0.9999999999999999
    vertex -6.268316189705388 -26.172427077187535 0.9999999999999999
    vertex -6.268316189705388 -31.07242707718753 0.9999999999999999
  endloop
endfacet
facet normal 0.0 0.0 1.0
  outer loop
    vertex -6.268316189705388 -26.172427077187535 0.9999999999999999
    vertex 6.1316838102946125 -31.07242707718753 0.9999999999999999
    vertex 6.1316838102946125 -26.172427077187535 0.9999999999999999
  endloop
endfacet
facet normal 0.0 0.0 1.0
  outer loop
    vertex 6.1316838102946125 26.92757292281246 0.9999999999999999
    vertex -6.268316189705388 31.82757292281247 0.9999999999999999
    vertex -6.268316189705388 26.92757292281246 0.9999999999999999
  endloop
endfacet
facet normal 0.0 0.0 1.0
  outer loop
    vertex -6.268316189705388 31.82757292281247 0.9999999999999999
    vertex 6.1316838102946125 26.92757292281246 0.9999999999999999
    vertex 6.1316838102946125 31.82757292281247 0.9999999999999999
  endloop
endfacet
facet normal 0.0 0.0 1.0
  outer loop
    vertex 6.1316838102946125 12.427572922812463 0.9999999999999999
    vertex -6.268316189705388 17.327572922812454 0.9999999999999999
    vertex -6.268316189705388 12.427572922812463 0.9999999999999999
  endloop
endfacet
facet normal 0.0 0.0 1.0
  outer loop
    vertex -6.268316189705388 17.327572922812454 0.9999999999999999
    vertex 6.1316838102946125 12.427572922812463 0.9999999999999999
    vertex 6.1316838102946125 17.327572922812454 0.9999999999999999
  endloop
endfacet
facet normal 0.0 0.0 1.0
  outer loop
    vertex 6.1316838102946125 -2.072427077187539 0.9999999999999999
    vertex -6.268316189705388 2.827572922812452 0.9999999999999999
    vertex -6.268316189705388 -2.072427077187539 0.9999999999999999
  endloop
endfacet
facet normal 0.0 0.0 1.0
  outer loop
    vertex -6.268316189705388 2.827572922812452 0.9999999999999999
    vertex 6.1316838102946125 -2.072427077187539 0.9999999999999999
    vertex 6.1316838102946125 2.827572922812452 0.9999999999999999
  endloop
endfacet
facet normal 0.0 0.0 1.0
  outer loop
    vertex 6.1316838102946125 -16.572427077187523 0.9999999999999999
    vertex -6.268316189705388 -11.672427077187539 0.9999999999999999
    vertex -6.268316189705388 -16.572427077187523 0.9999999999999999
  endloop
endfacet
facet normal 0.0 0.0 1.0
  outer loop
    vertex -6.268316189705388 -11.672427077187539 0.9999999999999999
    vertex 6.1316838102946125 -16.572427077187523 0.9999999999999999
    vertex 6.1316838102946125 -11.672427077187539 0.9999999999999999
  endloop
endfacet
endsolid Untitled-551f0ebb
