#define battery_width 16
#define battery_height 16
static unsigned char battery_bits[] = {
   0x00, 0x00, 0x00, 0x00, 0x00, 0x00, 0x00, 0x00, 0x68, 0x1b, 0x00, 0x40,
   0x04, 0x40, 0x06, 0x40, 0x06, 0x40, 0x04, 0x40, 0x00, 0x40, 0xb0, 0x2d,
   0x00, 0x00, 0x00, 0x00, 0x00, 0x00, 0x00, 0x00 };
