#define ckdistro_width 20
#define ckdistro_height 20
static unsigned char ckdistro_bits[] = {
   0x00, 0x00, 0x00, 0x00, 0x00, 0x00, 0x00, 0x00, 0x00, 0xf0, 0x87, 0x0f,
   0xf8, 0xc7, 0x0f, 0xfc, 0xe3, 0x07, 0xfe, 0xf1, 0x03, 0x7e, 0xf8, 0x01,
   0x1f, 0xfc, 0x00, 0x0f, 0x7e, 0x00, 0x0f, 0x7e, 0x00, 0x1f, 0xfc, 0x00,
   0x3e, 0xf8, 0x01, 0xfe, 0xf1, 0x03, 0xfc, 0xe3, 0x07, 0xf8, 0xc7, 0x0f,
   0xf0, 0x87, 0x0f, 0x00, 0x00, 0x00, 0x00, 0x00, 0x00, 0x00, 0x00, 0x00 };
