#define mpd_width 16
#define mpd_height 16
static unsigned char mpd_bits[] = {
   0xff, 0xff, 0xff, 0xff, 0xff, 0xff, 0xff, 0xff, 0x3f, 0xe0, 0xbf, 0xef,
   0xbf, 0xef, 0xbf, 0xef, 0xbf, 0xef, 0xbf, 0xef, 0x8f, 0xe3, 0x87, 0xe1,
   0xcf, 0xf3, 0xff, 0xff, 0xff, 0xff, 0xff, 0xff };
