#define rainny_width 8
#define rainny_height 8
static unsigned char rainny_bits[] = {
   0x92, 0x24, 0x41, 0x12, 0x24, 0x41, 0x92, 0x24 };
