#define sunny_width 8
#define sunny_height 8
static unsigned char sunny_bits[] = {
   0x54, 0x3d, 0xc2, 0x43, 0xc2, 0x43, 0xbc, 0x2a };
