#define temp_width 8
#define temp_height 8
static unsigned char temp_bits[] = {
   0x37, 0x1f, 0x8d, 0xd7, 0xe9, 0xf6, 0xf6, 0xf9 };
