#define tor_width 8
#define tor_height 8
static unsigned char tor_bits[] = {
   0x18, 0x24, 0x5a, 0xa5, 0xbd, 0xbd, 0x81, 0x7e };
