#define usb2_width 8
#define usb2_height 8
static unsigned char usb2_bits[] = {
   0xef, 0xaf, 0xab, 0xab, 0xcb, 0xe7, 0xef, 0xef };
