#define cloudy_width 8
#define cloudy_height 8
static unsigned char cloudy_bits[] = {
   0x0c, 0x1e, 0x7f, 0xff, 0xff, 0xfe, 0x6e, 0x00 };
