#define dish_width 8
#define dish_height 8
static unsigned char dish_bits[] = {
   0x7e, 0x84, 0xb9, 0xb1, 0xa3, 0xc1, 0x88, 0x3c };
