#define fog_width 8
#define fog_height 8
static unsigned char fog_bits[] = {
   0x7e, 0x00, 0xfc, 0x00, 0x7e, 0x00, 0xfc, 0x00 };
