#define hostapd_icon_width 8
#define hostapd_icon_height 8
static unsigned char hostapd_icon_bits[] = {
   0xc1, 0xc5, 0x15, 0x35, 0x05, 0x7d, 0x01, 0xff };
