#define mail_width 8
#define mail_height 8
static unsigned char mail_bits[] = {
   0xff, 0x00, 0x81, 0x42, 0x24, 0x18, 0x00, 0xff };
