#define net_wired_width 8
#define net_wired_height 8
static unsigned char net_wired_bits[] = {
   0xff, 0xe3, 0xe3, 0x80, 0x80, 0x80, 0xaa, 0x80 };
