#define spkr_01_width 8
#define spkr_01_height 8
static unsigned char spkr_01_bits[] = {
   0x08, 0x4c, 0x8f, 0xaf, 0xaf, 0x8f, 0x4c, 0x08 };
